<?xml version="1.0" encoding="UTF-8"?>
<svg version="1.1" xmlns="http://www.w3.org/2000/svg" width="463" height="465">
<path d="M0 0 C152.79 0 305.58 0 463 0 C463 153.45 463 306.9 463 465 C310.21 465 157.42 465 0 465 C0 311.55 0 158.1 0 0 Z " fill="#FEFEFE" transform="translate(0,0)"/>
<path d="M0 0 C1.84243032 -0.00599242 3.68485814 -0.0127996 5.52728271 -0.02035522 C10.50882307 -0.03794852 15.49029461 -0.04270774 20.47186303 -0.0439868 C23.59005137 -0.0454126 26.70822245 -0.04969027 29.82640648 -0.05498123 C40.72135902 -0.07345854 51.61626277 -0.08165462 62.51123047 -0.08007812 C72.6405094 -0.07887694 82.76957518 -0.0999807 92.89880019 -0.13156545 C101.61846356 -0.15777867 110.33805751 -0.16844333 119.05775994 -0.16716731 C124.25543902 -0.16665921 129.45292845 -0.17225782 134.65056801 -0.19352341 C139.5418627 -0.21299134 144.43278842 -0.21297211 149.32409668 -0.19849014 C151.11020133 -0.19641162 152.8963296 -0.20104532 154.68239403 -0.21321106 C170.51132679 -0.31397252 183.82019129 1.79618354 195.7175293 13.20458984 C205.88573441 24.18187795 208.03476343 35.4032238 207.98213196 50.01097107 C207.98595751 51.1510652 207.98978305 52.29115934 207.99372452 53.46580178 C208.00399729 57.26476512 208.00007324 61.06357571 207.99609375 64.86254883 C207.99935179 67.59491408 208.00556331 70.32727097 208.01158142 73.05963135 C208.02429619 79.69813177 208.02612619 86.33659169 208.02378116 92.97510224 C208.02199441 98.37332471 208.02375526 103.77153493 208.0280056 109.16975594 C208.02860079 109.93955087 208.02919598 110.70934581 208.0298092 111.50246786 C208.03102102 113.06655248 208.03223515 114.63063709 208.03345158 116.19472171 C208.04431446 130.84478264 208.04217042 145.49482052 208.03606673 160.14488275 C208.0308973 173.53225438 208.04215593 186.91955326 208.06116495 200.30691051 C208.08055963 214.07196814 208.08879658 227.83699138 208.0850417 241.60206276 C208.08313231 249.32256183 208.08559176 257.04299897 208.09975624 264.76348686 C208.11169172 271.33519609 208.11305061 277.90680525 208.10096607 284.47851592 C208.09509279 287.82782075 208.09557387 291.1767934 208.10596848 294.5261097 C208.11644638 298.16527478 208.1083262 301.80395217 208.09565735 305.44309998 C208.10303163 306.4898121 208.11040592 307.53652422 208.11800367 308.61495489 C208.0189533 322.18905447 203.80967292 333.05952019 194.59643555 343.04052734 C186.35181093 350.93521034 177.04328821 354.4369606 165.84228516 354.44442749 C165.04287443 354.44880974 164.24346371 354.453192 163.41982841 354.45770705 C160.73780963 354.47107448 158.05582369 354.47726936 155.3737793 354.48339844 C153.45179598 354.49130119 151.52981415 354.49957025 149.60783386 354.50817871 C143.29154881 354.53438463 136.97525718 354.54970762 130.65893555 354.56396484 C128.48240149 354.56932562 126.30586747 354.57470313 124.1293335 354.5800972 C115.07216974 354.60172621 106.01500775 354.62046093 96.95782471 354.63171959 C83.99127433 354.64794513 71.02502426 354.68108901 58.05858707 354.73812044 C48.93482749 354.77687698 39.81114803 354.79635921 30.68730831 354.80164015 C25.24191294 354.80528651 19.79683798 354.81723151 14.35153198 354.84974289 C9.22308664 354.87992298 4.09515389 354.88609989 -1.03336143 354.87435913 C-2.90858564 354.87413921 -4.78383432 354.88237631 -6.6589756 354.90001297 C-21.26014219 355.02979147 -32.24923633 353.10272047 -43.15722656 342.6640625 C-52.91401429 332.99552068 -56.58534663 322.29593142 -56.70736694 308.79595947 C-56.70472446 307.43249446 -56.70175339 306.06903006 -56.69848633 304.70556641 C-56.70583817 303.24751134 -56.71442763 301.78946207 -56.72415161 300.3314209 C-56.74626255 296.39313795 -56.74930345 292.45506489 -56.7474041 288.5167284 C-56.74728388 285.21696764 -56.75586917 281.91725051 -56.76418161 278.61750197 C-56.78337936 270.82456118 -56.78631326 263.03172748 -56.77954102 255.23876953 C-56.7729075 247.22876245 -56.79574493 239.21921671 -56.83285475 231.20930314 C-56.86365961 224.30703801 -56.87490001 217.40492043 -56.87101793 210.50258803 C-56.86896101 206.39135683 -56.87426411 202.28048458 -56.89891052 198.16931915 C-56.92135372 194.29813427 -56.91915634 190.42769314 -56.898983 186.5565033 C-56.89560336 185.14612487 -56.90052863 183.73569462 -56.91496658 182.32538605 C-57.04459402 168.70995597 -53.73152046 157.33429311 -44.27856445 147.29052734 C-35.05523753 137.96044895 -24.8444189 134.28566856 -11.83700562 134.05001831 C-9.38312029 134.04427609 -6.92919353 134.04941099 -4.4753418 134.06347656 C-3.11427824 134.06404191 -1.75321408 134.06372171 -0.39215088 134.06259155 C3.27248391 134.06202186 6.9369856 134.07371348 10.60158968 134.08773947 C14.4425872 134.10031129 18.28358835 134.10142238 22.12460327 134.10379028 C29.38457271 134.1099862 36.64448132 134.12637125 43.90442407 134.14648926 C52.17534855 134.1689073 60.44627606 134.17985649 68.71722341 134.18988013 C85.71866859 134.21073932 102.72003007 134.24739173 119.72143555 134.29052734 C119.72143555 118.78052734 119.72143555 103.27052734 119.72143555 87.29052734 C115.45238281 87.31671143 111.18333008 87.34289551 106.78491211 87.36987305 C92.65951383 87.45282547 78.5341058 87.50824771 64.40852737 87.5495882 C55.84652495 87.57531483 47.28475412 87.61035857 38.72290039 87.66772461 C31.25600195 87.71773017 23.78927132 87.74985859 16.32221007 87.76096982 C12.37233297 87.76745976 8.42293573 87.78259528 4.4732132 87.81917763 C0.74667689 87.8534094 -2.97918724 87.86352646 -6.70586586 87.85606575 C-8.70751704 87.85807231 -10.70909696 87.88482397 -12.71055603 87.91262817 C-26.01952878 87.83762994 -35.33013327 83.42036314 -44.6418457 74.19287109 C-48.28176764 70.18626073 -50.98200811 66.18178946 -53.27856445 61.29052734 C-53.61500977 60.62150391 -53.95145508 59.95248047 -54.2980957 59.26318359 C-58.24938592 49.86308222 -57.57743729 37.7423084 -54.21606445 28.29052734 C-49.12844852 16.81114605 -40.0885773 7.00769601 -28.27856445 2.29052734 C-19.06205422 -0.42358992 -9.50591094 -0.00618688 0 0 Z " fill="#020202" transform="translate(141.278564453125,55.70947265625)"/>
<path d="M0 0 C0.75913191 -0.00438225 1.51826382 -0.00876451 2.30039972 -0.01327956 C4.85199729 -0.0266668 7.40356032 -0.03284631 9.95518494 -0.03897095 C11.78174496 -0.04687214 13.60830341 -0.0551411 15.43486023 -0.06375122 C21.44153858 -0.08997504 27.4482239 -0.1052818 33.4549408 -0.11953735 C35.52348269 -0.12489737 37.59202453 -0.13027488 39.66056633 -0.13566971 C48.26732943 -0.15730125 56.87409065 -0.17603657 65.48087406 -0.1872921 C77.80941895 -0.20352115 90.13764816 -0.23667058 102.46607405 -0.29369295 C111.13713205 -0.33242871 119.80810575 -0.35192926 128.47924799 -0.35721266 C133.65632288 -0.36086185 138.83306111 -0.37283689 144.01004219 -0.4053154 C148.88485606 -0.43545895 153.75913068 -0.44168541 158.63401794 -0.42993164 C160.41816661 -0.42971141 162.20234075 -0.43797408 163.98640251 -0.45558548 C182.19287016 -0.62545055 182.19287016 -0.62545055 189.60728455 5.15390015 C194.98507757 10.96439908 196.94849419 15.61204707 196.81040955 23.52890015 C196.32161729 29.84560003 194.41834746 33.7407105 189.73228455 38.02890015 C184.43662614 42.49386704 179.70424271 43.45107769 172.88467407 43.42805481 C171.72904558 43.43590983 171.72904558 43.43590983 170.55007106 43.44392353 C167.97232841 43.45890756 165.39478453 43.45962833 162.81700134 43.46029663 C160.96719529 43.46791919 159.1173924 43.47634685 157.26759338 43.48551941 C152.24477911 43.50746166 147.22202571 43.51626294 142.19916892 43.52134585 C139.06010768 43.52498971 135.92106238 43.53122993 132.78200722 43.53834724 C121.82800725 43.56284069 110.87405464 43.57589344 99.92002869 43.57943726 C89.71402772 43.58307255 79.50832747 43.6129678 69.30241841 43.65484184 C60.53622492 43.68954625 51.77013108 43.70498572 43.00386935 43.70568329 C37.76989647 43.70647604 32.53622994 43.7152141 27.30232811 43.74368095 C22.37822856 43.76986408 17.45468932 43.77206534 12.53055191 43.75602531 C10.72621882 43.75421103 8.9218535 43.76089968 7.11758995 43.77684402 C-10.51354375 43.92311716 -10.51354375 43.92311716 -16.39271545 38.15390015 C-21.17639741 33.42391664 -23.66204597 28.67024889 -23.83021545 21.90390015 C-23.69431293 15.96416046 -22.13637209 11.76630007 -18.39271545 7.15390015 C-12.52615696 1.73246964 -7.95500228 0.00556095 0 0 Z " fill="#FEFEFE" transform="translate(130.39271545410156,77.84609985351563)"/>
<path d="M0 0 C4.87146381 3.30285247 7.82052969 6.44806362 10 12 C10.44868351 16.00878461 10.42004264 19.99833201 10.40405273 24.02880859 C10.41091599 25.23603073 10.41777924 26.44325287 10.42485046 27.6870575 C10.43998579 30.98691213 10.4416206 34.28620041 10.43590808 37.58604765 C10.43281006 40.34681365 10.43891562 43.10752892 10.44494683 45.86828768 C10.45897867 52.38521677 10.45744261 58.90201473 10.44604492 65.41894531 C10.43457074 72.12758198 10.44863028 78.83581854 10.4754414 85.54440248 C10.49764261 91.31702839 10.5042257 97.08952911 10.49836498 102.86219466 C10.49500401 106.30424751 10.49735241 109.74604407 10.51461601 113.18806076 C10.53304381 117.02966569 10.51885258 120.87078387 10.50170898 124.71240234 C10.51137695 125.84305618 10.52104492 126.97371002 10.53100586 128.1386261 C10.45427902 136.36277642 9.07679635 141.92320365 3.1875 147.8125 C-3.0107615 152.06620887 -8.52213296 154.1583615 -16 153 C-21.95232077 151.01233095 -26.83725644 147.65929465 -30.07653046 142.17854404 C-33.23619454 135.73458621 -33.5704993 130.09921169 -33.51757812 122.99780273 C-33.5245874 121.8291568 -33.53159668 120.66051086 -33.53881836 119.45645142 C-33.55634232 115.61525313 -33.54479533 111.77479879 -33.53125 107.93359375 C-33.53394632 105.25276279 -33.53782439 102.57195396 -33.54284668 99.89112854 C-33.55010321 94.28191142 -33.54058713 88.67290566 -33.52148438 83.0637207 C-33.49970857 76.59527999 -33.50677973 70.12734354 -33.52879 63.65891498 C-33.54698857 58.08578718 -33.549481 52.51281046 -33.53903532 46.93966252 C-33.53282605 43.61949714 -33.53348363 40.29961836 -33.54518127 36.97945976 C-33.55536527 33.27689622 -33.53981819 29.57529481 -33.51757812 25.87280273 C-33.52567505 24.78426498 -33.53377197 23.69572723 -33.54211426 22.57420349 C-33.4576537 14.9655138 -32.18604013 9.63575951 -27.03515625 3.7578125 C-18.45929933 -3.34061957 -10.19662166 -5.44499597 0 0 Z " fill="#FDFDFD" transform="translate(140,227)"/>
<path d="M0 0 C0.73279175 0.28258667 1.4655835 0.56517334 2.22058105 0.85632324 C3.68050476 1.40600769 3.68050476 1.40600769 5.16992188 1.96679688 C6.12958862 2.33188354 7.08925537 2.69697021 8.07800293 3.07312012 C12.57625949 4.5000016 16.81699557 4.58425195 21.5 4.5 C22.78970703 4.52320313 22.78970703 4.52320313 24.10546875 4.546875 C29.10142324 4.51700382 33.14848621 3.74781805 37.83007812 1.96679688 C38.8033606 1.60034058 39.77664307 1.23388428 40.77941895 0.85632324 C41.51221069 0.57373657 42.24500244 0.2911499 43 0 C43.07016423 14.61243806 43.12302442 29.22485374 43.15543652 43.83742619 C43.17088783 50.62271325 43.19194394 57.40789547 43.22631836 64.19311523 C43.25947877 70.74183699 43.27685625 77.29049076 43.28463173 83.83929253 C43.29017258 86.33712922 43.30099244 88.83496 43.31719017 91.33275032 C43.33898316 94.83272276 43.34196606 98.33224596 43.34057617 101.83227539 C43.351362 102.86374191 43.36214783 103.89520844 43.3732605 104.95793152 C43.34246235 112.13040308 42.47835099 117.03974743 37.75 122.6875 C31.13245471 128.25225399 26.86545846 129.73906234 18.16015625 129.44921875 C12.04843047 128.58043202 8.15967043 125.50110631 4.125 121 C1.11442644 116.74977851 -0.2521037 113.32061233 -0.24050903 108.10881042 C-0.24325836 107.1511377 -0.24600769 106.19346497 -0.24884033 105.20677185 C-0.24164978 104.16811478 -0.23445923 103.1294577 -0.22705078 102.05932617 C-0.22734283 100.95644257 -0.22763489 99.85355896 -0.22793579 98.71725464 C-0.22654365 95.07574568 -0.2109876 91.43444192 -0.1953125 87.79296875 C-0.19158197 85.26662813 -0.18873518 82.74028606 -0.18673706 80.21394348 C-0.1798838 74.24647846 -0.16412453 68.27910137 -0.14403808 62.31167156 C-0.12166181 55.51604836 -0.11068131 48.7204216 -0.10064721 41.92477071 C-0.07975777 27.94980648 -0.0445926 13.97490727 0 0 Z " fill="#FEFEFE" transform="translate(283,250)"/>
<path d="M0 0 C29.04 0 58.08 0 88 0 C88 15.18 88 30.36 88 46 C58.96 46 29.92 46 0 46 C0 30.82 0 15.64 0 0 Z " fill="#FBFBFB" transform="translate(173,277)"/>
<path d="M0 0 C29.04 0 58.08 0 88 0 C88.495 10.395 88.495 10.395 89 21 C91.39868443 28.86235452 94.01586177 34.59182228 99 41 C99 41.66 99 42.32 99 43 C62.37 43 25.74 43 -12 43 C-9.69 39.37 -7.38 35.74 -5 32 C-0.81459849 21.25746947 -0.70194566 11.93307629 0 0 Z " fill="#FEFEFE" transform="translate(173,345)"/>
<path d="M0 0 C34.32 0 68.64 0 104 0 C107.29411765 18.11764706 107.29411765 18.11764706 105 25 C104.67 30.94 104.34 36.88 104 43 C74.96 43 45.92 43 16 43 C15.505 35.575 15.505 35.575 15 28 C12.80858362 18.81290825 9.88364802 12.32875455 4 5 C2.68 3.35 1.36 1.7 0 0 Z " fill="#FEFEFE" transform="translate(157,212)"/>
<path d="M0 0 C0.06961479 10.04899719 0.12286953 20.09793667 0.15543652 30.1471262 C0.17106973 34.81374716 0.19226508 39.48020273 0.22631836 44.14672852 C0.25899555 48.6530564 0.27687064 53.15922551 0.28463173 57.66566277 C0.29016025 59.38200313 0.30095612 61.09833513 0.31719017 62.81460762 C0.3390759 65.22498242 0.34196233 67.6347073 0.34057617 70.04516602 C0.351362 70.74935669 0.36214783 71.45354736 0.3732605 72.17907715 C0.33466606 78.41116008 -1.2318277 82.88801642 -5.25 87.6875 C-11.86754529 93.25225399 -16.13454154 94.73906234 -24.83984375 94.44921875 C-30.95156953 93.58043202 -34.84032957 90.50110631 -38.875 86 C-42.55369155 80.80655311 -43.24869739 76.9926838 -43.22705078 70.6394043 C-43.22734283 69.91690994 -43.22763489 69.19441559 -43.22793579 68.45002747 C-43.22654839 66.07463345 -43.21101525 63.69955761 -43.1953125 61.32421875 C-43.19158027 59.67226839 -43.18873429 58.0203158 -43.18673706 56.36836243 C-43.17911714 52.02987509 -43.15948281 47.6915226 -43.1373291 43.35308838 C-43.11683526 38.92225977 -43.10772779 34.49140927 -43.09765625 30.06054688 C-43.07623531 21.37363618 -43.04211926 12.68683488 -43 4 C-42.07251953 3.98541748 -41.14503906 3.97083496 -40.18945312 3.95581055 C-36.71509192 3.89438849 -33.24147547 3.82017084 -29.76757812 3.73754883 C-28.27028528 3.70450134 -26.7728739 3.67640798 -25.27539062 3.65356445 C-16.6226519 3.51800488 -8.03769326 0 0 0 Z " fill="#FDFDFD" transform="translate(326,139)"/>
</svg>
