<?xml version="1.0" encoding="UTF-8"?>
<svg version="1.1" xmlns="http://www.w3.org/2000/svg" width="463" height="465">
<path d="M0 0 C1.75626781 -0.00792676 3.5125341 -0.01619715 5.26879883 -0.02478027 C10.96792108 -0.05066357 16.66704957 -0.06625539 22.36621094 -0.08056641 C24.34218091 -0.08593658 26.31815086 -0.09131408 28.29412079 -0.09669876 C36.51280715 -0.11826164 44.73149178 -0.13699909 52.95019913 -0.14832115 C64.67005869 -0.16458495 76.38958841 -0.1978975 88.10932374 -0.254722 C96.38832157 -0.29348248 104.66723128 -0.31296 112.94631743 -0.31824172 C117.87623067 -0.32188144 122.80578927 -0.33375945 127.73560333 -0.36634445 C132.36847485 -0.39653999 137.00077893 -0.40269627 141.63372803 -0.39096069 C143.32513299 -0.39074105 145.01656532 -0.39895516 146.70787811 -0.41661453 C162.21087917 -0.56958089 173.49411073 3.11992543 184.78417969 14.06787109 C194.81731604 24.7698832 196.00497487 35.59244035 195.98429871 49.66607666 C195.98656426 50.80375638 195.98882982 51.9414361 195.99116403 53.11359096 C195.99748167 56.91639525 195.9966761 60.7191637 195.99584961 64.52197266 C195.99829994 67.25241734 196.00221718 69.98285953 196.00602722 72.71330261 C196.01431708 79.35507772 196.01708131 85.99684395 196.0176396 92.6386238 C196.01811556 98.04021937 196.02017431 103.44181203 196.02334023 108.84340668 C196.03214236 124.17452544 196.03676031 139.50563722 196.03600975 154.83675852 C196.03594982 156.07530231 196.03594982 156.07530231 196.03588867 157.33886719 C196.03584779 158.16557697 196.03580691 158.99228676 196.03576479 159.84404835 C196.03535847 173.23732114 196.04492556 186.63056579 196.05902704 200.02383044 C196.07340852 213.79221475 196.08029624 227.56058534 196.07943326 241.32897735 C196.0791019 249.05232033 196.08182234 256.77563383 196.09261131 264.49897003 C196.10173967 271.07543707 196.10387246 277.65186125 196.09710189 284.22833189 C196.09384838 287.57971375 196.09483537 290.93094673 196.10245514 294.28233147 C196.11019995 297.92553728 196.10551362 301.56852958 196.0978241 305.21173096 C196.10296766 306.25689448 196.10811122 307.302058 196.11341065 308.37889314 C196.04846971 322.37064164 193.85409474 333.01806816 184.10058594 343.44287109 C175.8781739 351.22507752 165.95141095 356.67630311 154.5390625 356.57382202 C153.72947712 356.57850199 152.91989174 356.58318197 152.08577347 356.58800375 C149.38741667 356.59991888 146.68957103 356.59051027 143.99121094 356.58105469 C142.05081894 356.58512194 140.11042925 356.59046468 138.17004395 356.59698486 C132.90976773 356.61064598 127.64966829 356.60536473 122.38938904 356.59584761 C116.88068165 356.58824481 111.37198925 356.59529835 105.86328125 356.6000061 C96.61292813 356.60546184 87.36264689 356.59827679 78.11230469 356.58398438 C67.42234664 356.56765824 56.73256025 356.57294688 46.04260635 356.58946359 C36.85940203 356.60308361 27.67624934 356.60499558 18.49303818 356.59714758 C13.01050758 356.59247393 7.52805763 356.59183783 2.04553223 356.60175705 C-3.10913619 356.6104319 -8.26358357 356.60439519 -13.41822815 356.58707428 C-15.30843235 356.58311223 -17.19865519 356.58423866 -19.08885193 356.59086227 C-21.67211477 356.59907898 -24.25467251 356.58875484 -26.83789062 356.57382202 C-27.58313366 356.58051419 -28.32837669 356.58720635 -29.09620285 356.59410131 C-34.2466042 356.5364852 -37.61321282 355.41559362 -42.14941406 353.19287109 C-43.81362756 352.52010393 -45.47927988 351.85080274 -47.14941406 351.19287109 C-47.14941406 350.53287109 -47.14941406 349.87287109 -47.14941406 349.19287109 C-48.23222656 348.82162109 -48.23222656 348.82162109 -49.33691406 348.44287109 C-56.35092217 345.32553416 -60.26532754 339.61784419 -64.14941406 333.19287109 C-64.14941406 332.53287109 -64.14941406 331.87287109 -64.14941406 331.19287109 C-64.80941406 330.86287109 -65.46941406 330.53287109 -66.14941406 330.19287109 C-69.90605119 320.02785299 -69.30671211 308.68591705 -69.34228516 298.00756836 C-69.350208 296.61656501 -69.35847819 295.22556361 -69.36706543 293.83456421 C-69.39300966 289.30948781 -69.40855414 284.78440335 -69.42285156 280.25927734 C-69.42822056 278.69100377 -69.43359807 277.12273023 -69.43898392 275.55445671 C-69.4605623 269.02848513 -69.4792973 262.50251576 -69.49060631 255.97651768 C-69.50684829 246.6714826 -69.54008999 237.36686452 -69.59700716 228.06198651 C-69.63582048 221.49008179 -69.65525176 214.91828818 -69.66052687 208.34627193 C-69.66416157 204.43346722 -69.67598262 200.52111014 -69.70862961 196.60843086 C-69.73891676 192.92686287 -69.74494988 189.24600884 -69.73324585 185.5643425 C-69.73292346 183.5890555 -69.75724396 181.61381111 -69.78262329 179.63868713 C-69.7024582 168.03745977 -65.93180442 156.9938156 -58.14941406 148.19287109 C-46.69967022 137.83195876 -35.3885843 133.42815773 -19.93554688 133.53344727 C-18.55446945 133.52497239 -17.17340398 133.51431844 -15.7923584 133.50167847 C-12.08227348 133.47378112 -8.37277159 133.47595885 -4.66261387 133.48397231 C-0.77082038 133.48711855 3.12079417 133.46200155 7.01251221 133.4400177 C14.36450057 133.40271234 21.71630403 133.39043776 29.06837773 133.3873933 C37.44585222 133.38268772 45.82314316 133.34971657 54.20053625 133.31449544 C71.41724233 133.24273791 88.63372537 133.20980245 105.85058594 133.19287109 C105.85058594 119.33287109 105.85058594 105.47287109 105.85058594 91.19287109 C101.24669922 91.21027344 101.24669922 91.21027344 96.54980469 91.22802734 C71.95816657 91.29922183 47.3765098 91.17341783 22.78808594 90.75537109 C20.98251724 90.7258989 20.98251724 90.7258989 19.14047241 90.6958313 C12.20191858 90.58048032 5.26434019 90.4426622 -1.67315674 90.27520752 C-4.05697265 90.21874597 -6.44089566 90.16668502 -8.82489014 90.11834717 C-12.47393515 90.0415031 -16.12204369 89.94563703 -19.77050781 89.84521484 C-20.86677994 89.82487686 -21.96305206 89.80453888 -23.09254456 89.78358459 C-37.45522013 89.33412389 -47.84579076 84.16740535 -58.65332031 74.90380859 C-60.32942177 72.98701371 -60.60826102 71.63579053 -61.14941406 69.19287109 C-61.80941406 68.86287109 -62.46941406 68.53287109 -63.14941406 68.19287109 C-68.19791321 59.35799759 -69.62378802 50.22015507 -69.14941406 40.19287109 C-69.10816406 38.91412109 -69.06691406 37.63537109 -69.02441406 36.31787109 C-67.32378588 24.91906599 -59.29601626 14.91227079 -50.40722656 8.08740234 C-35.65509933 -1.82226761 -17.13340338 0.04410832 0 0 Z M-39.72363281 30.57958984 C-43.31609709 34.64448778 -44.93475588 39.4449402 -45.58691406 44.75537109 C-44.58130745 52.6565659 -42.19246327 56.7740655 -35.98925781 61.84521484 C-28.34772645 67.44251489 -15.43079986 65.33451976 -6.29785156 65.32226562 C-4.59686241 65.32362238 -2.89587356 65.32540386 -1.19488525 65.32757568 C3.40422034 65.33211732 8.00330339 65.33037394 12.60240936 65.3271966 C17.4268347 65.32465607 22.25125817 65.32701525 27.07568359 65.32858276 C35.17578476 65.33039952 43.27587679 65.3280111 51.37597656 65.32324219 C60.7264536 65.31780052 70.07690882 65.31956353 79.42738533 65.32506859 C87.47095488 65.32961378 95.51451788 65.33024338 103.5580883 65.32762992 C108.3553999 65.32607489 113.15270127 65.32585214 117.95001221 65.32916641 C122.46115382 65.33206556 126.97226746 65.33003198 131.48340607 65.32427216 C133.13411666 65.3229555 134.78482962 65.32331998 136.43553925 65.32553482 C153.33213437 66.21053382 153.33213437 66.21053382 167.85058594 59.19287109 C171.207835 54.45034936 173.76721563 49.18657775 173.33496094 43.26708984 C171.97340595 37.43656004 169.13675732 32.66278124 165.22558594 28.19287109 C156.81447924 23.20851157 146.4567583 23.90169193 136.953125 23.98706055 C134.85371696 24.00534383 132.75475305 24.00756914 130.65527344 24.00732422 C124.91710677 24.02788347 119.27860541 24.12744035 113.56665039 24.69506836 C107.93484606 25.23361437 102.36047474 25.3377006 96.70605469 25.32568359 C95.18592522 25.32711868 95.18592522 25.32711868 93.63508606 25.32858276 C91.5133152 25.32925782 89.39154219 25.32745108 87.26977539 25.32324219 C84.02908715 25.31785614 80.78853573 25.32322452 77.54785156 25.32958984 C75.47558563 25.32892949 73.40331979 25.32764921 71.33105469 25.32568359 C70.36846237 25.32770782 69.40587006 25.32973206 68.41410828 25.33181763 C63.758776 25.31560318 59.44363898 25.02797165 54.85058594 24.19287109 C53.86058594 24.35787109 52.87058594 24.52287109 51.85058594 24.69287109 C48.51497356 25.24880649 46.17028473 24.7595547 42.85058594 24.19287109 C41.00141086 24.10695611 39.14975317 24.06505979 37.29858398 24.06347656 C36.23274582 24.0603244 35.16690765 24.05717224 34.06877136 24.05392456 C32.35782036 24.05696091 32.35782036 24.05696091 30.61230469 24.06005859 C29.41813431 24.05910187 28.22396393 24.05814514 26.99360657 24.05715942 C24.4644058 24.05647957 21.93520327 24.05832031 19.40600586 24.0625 C15.58996504 24.06779905 11.77404473 24.0625754 7.95800781 24.05615234 C-17.26010862 22.25215377 -17.26010862 22.25215377 -39.72363281 30.57958984 Z M169.85058594 85.19287109 C168.73876953 85.62599609 168.73876953 85.62599609 167.60449219 86.06787109 C159.41824733 88.95359755 152.58417275 89.54063513 143.99121094 89.23583984 C140.97327594 89.14518038 138.08960325 89.33487336 135.09179688 89.69018555 C133.89487213 89.82998589 133.89487213 89.82998589 132.67376709 89.97261047 C132.07211731 90.04529648 131.47046753 90.11798248 130.85058594 90.19287109 C130.80404241 98.6254811 130.76860568 107.05803653 130.74696159 115.49074364 C130.73656835 119.40728704 130.72249166 123.32374191 130.69970703 127.24023438 C130.67781826 131.02686038 130.66598386 134.81340177 130.66083145 138.60008621 C130.65716425 140.03761754 130.65000396 141.47514477 130.63912582 142.91263962 C130.22580352 159.09592433 130.22580352 159.09592433 137.93261719 172.56396484 C142.6349528 176.55759814 147.47434461 177.75927973 153.49902344 177.55224609 C157.57978402 176.92860826 161.4121412 175.48772595 164.85058594 173.19287109 C165.34558594 171.70787109 165.34558594 171.70787109 165.85058594 170.19287109 C166.84058594 169.86287109 167.83058594 169.53287109 168.85058594 169.19287109 C173.21155722 161.27801839 172.27042904 151.28437577 172.21386719 142.53662109 C172.21334764 140.94144695 172.21386899 139.34627215 172.21537781 137.75109863 C172.21528864 134.42950728 172.2049647 131.10816147 172.18676758 127.78662109 C172.16393354 123.52494948 172.16356879 119.26363114 172.17028522 115.00191498 C172.17361919 111.71802615 172.16700845 108.43421833 172.15715599 105.15034485 C172.15330487 103.57782921 172.15215541 102.00530458 172.15374184 100.43278503 C172.15411134 98.24521508 172.14153022 96.05810631 172.12524414 93.87060547 C172.12063675 92.62613647 172.11602936 91.38166748 172.11128235 90.0994873 C172.15239743 87.06727434 172.15239743 87.06727434 169.85058594 85.19287109 Z M6.85058594 158.19287109 C8.17004585 161.06426719 9.6724497 163.24213749 11.72558594 165.63037109 C19.04603681 175.32550481 19.38628578 187.47846986 20.85058594 199.19287109 C49.23058594 199.19287109 77.61058594 199.19287109 106.85058594 199.19287109 C107.18058594 194.24287109 107.51058594 189.29287109 107.85058594 184.19287109 C108.26308594 182.17162109 108.67558594 180.15037109 109.10058594 178.06787109 C110.35683347 171.38609076 108.77624638 165.61173923 106.85058594 159.19287109 C98.34898788 158.08419032 89.87996611 158.04622067 81.32324219 158.06005859 C79.84256474 158.05938361 78.3618874 158.05841196 76.88121033 158.05715942 C73.79929535 158.05569483 70.7174096 158.05779901 67.63549805 158.0625 C63.68564344 158.06823184 59.73585628 158.06488878 55.78600407 158.05892754 C52.73800648 158.05531826 49.69002497 158.0564616 46.6420269 158.05905533 C45.18476796 158.05972176 43.72750755 158.05890607 42.27025032 158.05657578 C40.24112094 158.05403948 38.21198641 158.05858987 36.18286133 158.06347656 C34.45272545 158.06466995 34.45272545 158.06466995 32.68763733 158.06588745 C29.77309312 158.06676213 29.77309312 158.06676213 26.85058594 159.19287109 C26.19058594 158.86287109 25.53058594 158.53287109 24.85058594 158.19287109 C23.47510437 158.10978472 22.09572798 158.08551094 20.71777344 158.09521484 C19.91210938 158.0984375 19.10644531 158.10166016 18.27636719 158.10498047 C17.43460938 158.11335937 16.59285156 158.12173828 15.72558594 158.13037109 C14.45134766 158.13713867 14.45134766 158.13713867 13.15136719 158.14404297 C11.05107685 158.15584235 8.95082263 158.17377803 6.85058594 158.19287109 Z M-42.14941406 180.19287109 C-46.42967941 187.50033866 -45.29700114 197.58468699 -45.27880859 205.81396484 C-45.28056091 206.81227325 -45.28231323 207.81058167 -45.28411865 208.83914185 C-45.28848017 212.1029032 -45.28561941 215.3666093 -45.28222656 218.63037109 C-45.28290124 220.92000336 -45.28387263 223.20963556 -45.28512573 225.49926758 C-45.28659499 230.28353563 -45.28447303 235.06778492 -45.27978516 239.85205078 C-45.27408836 245.96125277 -45.2773715 252.07041082 -45.28335762 258.17961121 C-45.2869841 262.90328294 -45.28581507 267.62694439 -45.28322983 272.35061646 C-45.28256633 274.60230515 -45.28336864 276.8539948 -45.28570938 279.10568237 C-45.28827031 282.26107227 -45.2843472 285.41639258 -45.27880859 288.57177734 C-45.28083282 289.48742462 -45.28285706 290.4030719 -45.28494263 291.34646606 C-45.6078619 305.83226343 -45.6078619 305.83226343 -38.54003906 317.81396484 C-34.44931702 321.58792744 -30.77219168 324.20594971 -24.98535156 324.18505859 C-16.88614536 323.56204273 -12.15025689 320.54472963 -6.56738281 314.81396484 C-3.14217484 308.4825198 -3.97539499 299.68411491 -3.83300781 292.59912109 C-3.80156425 291.22333893 -3.80156425 291.22333893 -3.76948547 289.81976318 C-3.70280306 286.77755384 -3.64377377 283.73527929 -3.58691406 280.69287109 C-3.56673218 279.63837769 -3.54655029 278.58388428 -3.52575684 277.49743652 C-3.17564755 258.63293084 -2.9870225 239.76620811 -2.91824341 220.89868164 C-2.9071537 217.93327179 -2.88929932 214.96802157 -2.86569214 212.00268555 C-2.83828873 208.48092804 -2.82606242 204.95942966 -2.82527733 201.43756866 C-2.82139497 199.51104795 -2.80290798 197.58457405 -2.78401184 195.65814209 C-2.80169845 188.7094425 -3.11324343 183.83627585 -7.71191406 178.31787109 C-9.10768486 176.98743501 -9.10768486 176.98743501 -11.14941406 177.19287109 C-11.14941406 176.53287109 -11.14941406 175.87287109 -11.14941406 175.19287109 C-23.45176779 168.38524453 -32.99170739 168.68386135 -42.14941406 180.19287109 Z M130.85058594 197.19287109 C130.82738434 210.59734702 130.80963101 224.00181814 130.79877377 237.40631008 C130.79356204 243.63098804 130.78649548 249.85565223 130.77514648 256.08032227 C130.76425679 262.09089861 130.75829621 268.10146174 130.75570869 274.1120472 C130.7538654 276.40167511 130.75026594 278.69130234 130.74485588 280.98092461 C130.73756472 284.195388 130.7365984 287.40979721 130.73706055 290.62426758 C130.73346527 291.5643869 130.72987 292.50450623 130.72616577 293.47311401 C130.48796355 305.67121225 130.48796355 305.67121225 135.85058594 316.19287109 C140.49860226 320.78981031 144.67175586 323.23922571 151.22558594 323.50537109 C158.45571479 323.31352688 163.78539904 320.25805799 168.85058594 315.19287109 C172.15153041 309.21108599 172.2636333 304.04259047 172.19116211 297.30053711 C172.19160019 296.22662216 172.19203827 295.15270721 172.19248962 294.04624939 C172.19040731 290.51290414 172.16710187 286.98003924 172.14355469 283.44677734 C172.13795677 280.99055745 172.1336876 278.53433419 172.13069153 276.07810974 C172.11925826 269.62544444 172.08980382 263.17298294 172.05657959 256.72039795 C172.02584617 250.13117225 172.01217918 243.54191349 171.99707031 236.95263672 C171.96493293 224.03262809 171.9143345 211.11276045 171.85058594 198.19287109 C171.19058594 197.86287109 170.53058594 197.53287109 169.85058594 197.19287109 C168.16841702 197.81939319 166.50357487 198.49297838 164.85058594 199.19287109 C154.69596385 202.17303192 145.91235485 200.38382387 135.85058594 198.19287109 C134.18441276 197.85707975 132.51784479 197.52322969 130.85058594 197.19287109 Z M20.85058594 224.19287109 C20.85058594 238.05287109 20.85058594 251.91287109 20.85058594 266.19287109 C24.92917644 267.21251872 28.58076609 267.32652281 32.74023438 267.30639648 C33.5308577 267.30654251 34.32148102 267.30668854 35.13606262 267.30683899 C37.74405683 267.30614345 40.35197923 267.29836785 42.95996094 267.29052734 C44.77028362 267.28866189 46.58060681 267.28723859 48.39093018 267.28623962 C53.15189003 267.28242449 57.9128193 267.27260275 62.67376709 267.26153564 C67.53348375 267.25129997 72.39320535 267.24673738 77.25292969 267.24169922 C86.7854952 267.23097959 96.31803802 267.21391519 105.85058594 267.19287109 C107.15862701 263.26874788 106.99335678 259.52869841 106.98339844 255.43896484 C106.98483353 254.1539785 106.98483353 254.1539785 106.98629761 252.84303284 C106.9869778 251.03329393 106.9851347 249.22355257 106.98095703 247.41381836 C106.97559996 244.63763988 106.98091081 241.8616227 106.98730469 239.08544922 C106.98664401 237.3282874 106.98536305 235.57112569 106.98339844 233.81396484 C106.98643478 232.56394936 106.98643478 232.56394936 106.98953247 231.28868103 C107.08502594 227.10748497 107.08502594 227.10748497 105.85058594 223.19287109 C95.06327582 223.16973542 84.27597158 223.15194973 73.48864174 223.14105892 C68.48004914 223.13583279 63.47147348 223.12874 58.46289062 223.11743164 C53.63240771 223.10659323 48.80194112 223.10059222 43.97144699 223.09799385 C42.12539793 223.09614133 40.27934979 223.09252401 38.43330765 223.08714104 C35.85444433 223.07991798 33.27564909 223.07888069 30.69677734 223.0793457 C29.9278566 223.07575043 29.15893585 223.07215515 28.36671448 223.06845093 C24.48095172 223.00023477 24.48095172 223.00023477 20.85058594 224.19287109 Z M20.85058594 291.19287109 C20.19058594 297.79287109 19.53058594 304.39287109 18.85058594 311.19287109 C16.9907109 318.50837959 15.36653317 324.22536939 10.85058594 330.19287109 C10.85058594 330.85287109 10.85058594 331.51287109 10.85058594 332.19287109 C45.83058594 332.19287109 80.81058594 332.19287109 116.85058594 332.19287109 C115.18266899 328.02307872 113.37325202 324.56714656 111.06933594 320.76708984 C106.5689809 311.26153226 107.40433523 301.7141077 106.85058594 291.19287109 C78.47058594 291.19287109 50.09058594 291.19287109 20.85058594 291.19287109 Z " fill="#020202" transform="translate(153.1494140625,54.80712890625)"/>
<path d="M0 0 C0.66 0 1.32 0 2 0 C2.33 14.19 2.66 28.38 3 43 C17.88085747 43.02906946 17.88085747 43.02906946 32.76171875 43.04882812 C38.8279711 43.05481383 44.8942084 43.0619069 50.96044922 43.07543945 C55.84928681 43.08627763 60.73810827 43.09227882 65.62695694 43.09487724 C67.49533467 43.09672981 69.36371148 43.10034721 71.23208237 43.10573006 C73.84207846 43.11295281 76.45200729 43.11399041 79.06201172 43.11352539 C80.22941895 43.1189183 80.22941895 43.1189183 81.42041016 43.12442017 C85.33852714 43.19684186 85.33852714 43.19684186 89 42 C89 42.99 89 43.98 89 45 C59.63 45 30.26 45 0 45 C0 30.15 0 15.3 0 0 Z " fill="#474747" transform="translate(172,278)"/>
<path d="M0 0 C0.66 0 1.32 0 2 0 C2.04669997 14.2903906 2.08184609 28.58076938 2.10362434 42.87122059 C2.11407518 49.5063777 2.12825811 56.14148366 2.15087891 62.77661133 C2.17256089 69.17619519 2.18455883 75.57572977 2.18975449 81.97534752 C2.1934586 84.42065902 2.20069149 86.86596772 2.21146011 89.31125832 C2.22591321 92.72815472 2.22798053 96.14484568 2.22705078 99.56176758 C2.23424133 100.57956299 2.24143188 101.5973584 2.24884033 102.64599609 C2.246091 103.57567703 2.24334167 104.50535797 2.24050903 105.46321106 C2.24235262 106.27162351 2.24419621 107.08003595 2.24609566 107.91294575 C2 110 2 110 0 113 C-1.09830334 49.46703628 -1.09830334 49.46703628 -1.125 19.9375 C-1.12749756 18.95851746 -1.12999512 17.97953491 -1.13256836 16.97088623 C-1.13832889 14.2605003 -1.13706312 11.55023018 -1.1328125 8.83984375 C-1.13479645 8.04828384 -1.1367804 7.25672394 -1.13882446 6.44117737 C-1.11549153 1.11549153 -1.11549153 1.11549153 0 0 Z " fill="#1B1B1B" transform="translate(325,250)"/>
<path d="M0 0 C36.3 0 72.6 0 110 0 C110 0.66 110 1.32 110 2 C84.71483329 2.84379557 59.48441908 3.08362484 34.1875 2.625 C32.93808624 2.60357941 31.68867249 2.58215881 30.40139771 2.56008911 C26.82343648 2.49668548 23.24571734 2.42593534 19.66796875 2.3515625 C18.60514679 2.33166763 17.54232483 2.31177277 16.44729614 2.29127502 C10.89231972 2.16239688 5.49912764 1.80370918 0 1 C0 0.67 0 0.34 0 0 Z " fill="#2B2B2B" transform="translate(151,143)"/>
<path d="M0 0 C0.33 0 0.66 0 1 0 C1 4.95 1 9.9 1 15 C-28.37 15 -57.74 15 -88 15 C-88 6 -88 6 -86 3 C-86 6.3 -86 9.6 -86 13 C-57.62 13 -29.24 13 0 13 C0 8.71 0 4.42 0 0 Z " fill="#191919" transform="translate(260,241)"/>
<path d="M0 0 C0.66 0 1.32 0 2 0 C2 25.74 2 51.48 2 78 C1.01 78.495 1.01 78.495 0 79 C-1.23186255 71.334194 -1.1454976 63.70406277 -1.1328125 55.95703125 C-1.13348725 54.50070683 -1.1344587 53.04438251 -1.13571167 51.58805847 C-1.13717919 48.54966144 -1.13506371 45.51129397 -1.13037109 42.47290039 C-1.12465906 38.58596109 -1.12796811 34.69909063 -1.13394356 30.81215382 C-1.13756174 27.81039412 -1.13640506 24.80865068 -1.13381577 21.80689049 C-1.13315077 20.37361327 -1.13395993 18.94033456 -1.13629532 17.5070591 C-1.13884416 15.50446223 -1.1342684 13.50186014 -1.12939453 11.49926758 C-1.12820114 9.79339226 -1.12820114 9.79339226 -1.12698364 8.05305481 C-1.01045171 5.25128942 -0.64008324 2.72447366 0 0 Z " fill="#252525" transform="translate(325,138)"/>
<path d="M0 0 C0.87884354 -0.00315216 1.75768707 -0.00630432 2.66316223 -0.009552 C3.6182518 -0.00752777 4.57334137 -0.00550354 5.55737305 -0.00341797 C6.54472946 -0.00437469 7.53208588 -0.00533142 8.54936218 -0.00631714 C10.64846866 -0.00699911 12.74757723 -0.00514367 14.84667969 -0.00097656 C18.01787244 0.00430916 21.18891947 -0.00088827 24.36010742 -0.00732422 C34.53746404 -0.01033839 44.62574234 0.04952494 54.7565918 1.12939453 C54.7565918 1.45939453 54.7565918 1.78939453 54.7565918 2.12939453 C42.41389724 2.73023 30.10909583 3.20865116 17.75073242 3.10986328 C10.38319734 3.07371838 3.09695636 3.50657572 -4.2434082 4.12939453 C-4.9034082 3.13939453 -5.5634082 2.14939453 -6.2434082 1.12939453 C-3.92236635 -0.0311264 -2.58335575 0.00265703 0 0 Z " fill="#292929" transform="translate(129.243408203125,76.87060546875)"/>
<path d="M0 0 C0.33 0 0.66 0 1 0 C1.03963867 0.63502441 1.07927734 1.27004883 1.12011719 1.92431641 C1.31169905 4.82609362 1.53059515 7.72519919 1.75 10.625 C1.8428125 12.12353516 1.8428125 12.12353516 1.9375 13.65234375 C2.53298751 21.14556159 3.82716192 25.07122639 9.4375 30.25 C14.80759131 33.91737943 19.57748642 34.870147 26 34 C29.17215959 32.96856161 32.1506598 31.74267682 35 30 C35.33 29.34 35.66 28.68 36 28 C36.99 28.33 37.98 28.66 39 29 C33.67630437 34.79343348 29.6321009 37.15544315 21.75 37.5625 C14.99795909 37.40007977 10.01503637 35.58074456 5 31 C3.5 27.6875 3.5 27.6875 3 25 C2.34 24.67 1.68 24.34 1 24 C-0.02906196 21.06585411 -0.11745655 18.32322143 -0.09765625 15.234375 C-0.09443359 14.34492188 -0.09121094 13.45546875 -0.08789062 12.5390625 C-0.07532227 11.15847656 -0.07532227 11.15847656 -0.0625 9.75 C-0.05798828 8.81414062 -0.05347656 7.87828125 -0.04882812 6.9140625 C-0.03706918 4.60930959 -0.02063426 2.30468773 0 0 Z " fill="#252525" transform="translate(283,197)"/>
<path d="M0 0 C0.33 0 0.66 0 1 0 C1 8.91 1 17.82 1 27 C-4.87163138 27.02299595 -10.74310551 27.04289762 -16.61474609 27.05493164 C-18.61084524 27.05995022 -20.60694073 27.06676651 -22.60302734 27.07543945 C-25.47754826 27.08761356 -28.35202044 27.09325316 -31.2265625 27.09765625 C-32.55815903 27.10539818 -32.55815903 27.10539818 -33.91665649 27.11329651 C-38.39600242 27.11369908 -42.59071138 26.9115053 -47 26 C-47 25.67 -47 25.34 -47 25 C-24.23 24.505 -24.23 24.505 -1 24 C-1 17.73 -1 11.46 -1 5 C-0.67 3.35 -0.34 1.7 0 0 Z " fill="#303030" transform="translate(260,164)"/>
<path d="M0 0 C0.66 0 1.32 0 2 0 C2.04934399 5.94481181 2.08569282 11.88950509 2.10986328 17.83447266 C2.11993671 19.85793127 2.13359595 21.88137528 2.15087891 23.90478516 C2.17506847 26.80895589 2.18646949 29.71293461 2.1953125 32.6171875 C2.20563507 33.52556366 2.21595764 34.43393982 2.22659302 35.36984253 C2.22674408 36.21056305 2.22689514 37.05128357 2.22705078 37.91748047 C2.231492 38.65916473 2.23593323 39.400849 2.24050903 40.16500854 C2 42 2 42 0 44 C-0.1439155 39.16198967 -0.28627478 34.32393686 -0.42724609 29.48583984 C-0.47532986 27.84292389 -0.52382511 26.20001991 -0.57275391 24.55712891 C-0.64335849 22.18395029 -0.71244078 19.81073127 -0.78125 17.4375 C-0.80312378 16.71320801 -0.82499756 15.98891602 -0.84753418 15.24267578 C-0.9070372 13.16186596 -0.95704027 11.08121495 -1 9 C-1.01603271 8.25121582 -1.03206543 7.50243164 -1.04858398 6.73095703 C-1.07258407 4.82072014 -1.0411535 2.90994434 -1 1 C-0.67 0.67 -0.34 0.34 0 0 Z " fill="#606060" transform="translate(325,250)"/>
<path d="M0 0 C0.33 0 0.66 0 1 0 C1.02505615 0.589021 1.0501123 1.17804199 1.07592773 1.78491211 C1.19332361 4.50258671 1.31538715 7.22003342 1.4375 9.9375 C1.47681641 10.86369141 1.51613281 11.78988281 1.55664062 12.74414062 C1.81923351 26.74938279 1.81923351 26.74938279 9.1875 38.1875 C12.90964435 40.58621525 16.76582355 41.78232834 21 43 C21 43.66 21 44.32 21 45 C15.55206352 45.83814407 12.41418771 43.90334827 8.12109375 40.85546875 C4.06490307 37.30723565 1.68916982 33.06750946 0 28 C-0.0833804 25.86205475 -0.10733747 23.72157991 -0.09765625 21.58203125 C-0.09443359 20.32841797 -0.09121094 19.07480469 -0.08789062 17.78320312 C-0.07951172 16.47287109 -0.07113281 15.16253906 -0.0625 13.8125 C-0.05748317 12.47721519 -0.05292059 11.14192859 -0.04882812 9.80664062 C-0.03702695 6.53771527 -0.02056297 3.26888009 0 0 Z " fill="#2C2C2C" transform="translate(283,335)"/>
<path d="M0 0 C21.45 0 42.9 0 65 0 C65 0.66 65 1.32 65 2 C64.29256149 1.99777939 63.58512299 1.99555878 62.85624695 1.99327087 C56.1907713 1.97323756 49.52530405 1.95801032 42.85980511 1.94818783 C39.43297225 1.94296825 36.00616425 1.93588735 32.5793457 1.92456055 C28.64013974 1.91162154 24.70094387 1.90676414 20.76171875 1.90234375 C19.53039719 1.89718246 18.29907562 1.89202118 17.03044128 1.88670349 C15.88948502 1.88662796 14.74852875 1.88655243 13.57299805 1.88647461 C12.06409248 1.88314369 12.06409248 1.88314369 10.52470398 1.87974548 C7.87319389 1.89186094 7.87319389 1.89186094 5 3 C2.3125 2.0625 2.3125 2.0625 0 1 C0 0.67 0 0.34 0 0 Z " fill="#0E0E0E" transform="translate(175,212)"/>
<path d="M0 0 C0.99 0.33 1.98 0.66 3 1 C2.16855469 1.68835938 2.16855469 1.68835938 1.3203125 2.390625 C0.59585938 3.00421875 -0.12859375 3.6178125 -0.875 4.25 C-1.59429687 4.85328125 -2.31359375 5.4565625 -3.0546875 6.078125 C-6.7980555 9.77639218 -7.29162863 13.13037638 -7.6328125 18.296875 C-7.71660156 19.50214844 -7.80039063 20.70742187 -7.88671875 21.94921875 C-7.96535156 23.20347656 -8.04398437 24.45773438 -8.125 25.75 C-8.21136719 27.01972656 -8.29773438 28.28945312 -8.38671875 29.59765625 C-8.59877276 32.73134331 -8.8028956 35.86534294 -9 39 C-9.33 39 -9.66 39 -10 39 C-10.28810045 35.37700098 -10.52329269 31.75231696 -10.75 28.125 C-10.83121094 27.11179688 -10.91242188 26.09859375 -10.99609375 25.0546875 C-11.41584863 17.77893625 -10.26875994 12.51404259 -7 6 C-6.34 6 -5.68 6 -5 6 C-4.731875 5.38125 -4.46375 4.7625 -4.1875 4.125 C-3 2 -3 2 0 0 Z " fill="#262626" transform="translate(117,227)"/>
<path d="M0 0 C0.66 0 1.32 0 2 0 C2 8.58 2 17.16 2 26 C1.34 26 0.68 26 0 26 C-1.05556451 20.2373997 -0.94831638 14.8940924 -0.5625 9.0625 C-0.51029297 8.18787109 -0.45808594 7.31324219 -0.40429688 6.41210938 C-0.2757979 4.27435368 -0.13877359 2.13711331 0 0 Z " fill="#181818" transform="translate(149,338)"/>
<path d="M0 0 C2 2 2 2 3.1875 5.75 C5.07638274 11.09534344 8.98436434 14.49218217 14 17 C15.53668865 17.22467831 17.07968054 17.40796805 18.625 17.5625 C19.44226563 17.64628906 20.25953125 17.73007813 21.1015625 17.81640625 C22.04128906 17.90728516 22.04128906 17.90728516 23 18 C23 18.33 23 18.66 23 19 C13.31418523 20.56154748 13.31418523 20.56154748 9 18 C8.67 17.34 8.34 16.68 8 16 C7.01 15.67 6.02 15.34 5 15 C3.61328125 12.890625 3.61328125 12.890625 2.3125 10.25 C1.87550781 9.38890625 1.43851562 8.5278125 0.98828125 7.640625 C-0.04127438 4.88971748 -0.19360389 2.90929095 0 0 Z " fill="#282828" transform="translate(107,101)"/>
<path d="M0 0 C2.26598448 3.39897673 2.23742654 4.56319173 2.1953125 8.54296875 C2.18886719 9.61611328 2.18242187 10.68925781 2.17578125 11.79492188 C2.15902344 12.91447266 2.14226562 14.03402344 2.125 15.1875 C2.11597656 16.31865234 2.10695313 17.44980469 2.09765625 18.61523438 C2.07406862 21.41036828 2.041153 24.20507845 2 27 C1.67 26.01 1.34 25.02 1 24 C0.34 23.67 -0.32 23.34 -1 23 C-1.0272367 20.47909222 -1.04695207 17.95848543 -1.0625 15.4375 C-1.07087891 14.73302734 -1.07925781 14.02855469 -1.08789062 13.30273438 C-1.10882603 8.75975202 -0.74800682 4.48215108 0 0 Z " fill="#212121" transform="translate(260,296)"/>
<path d="M0 0 C0.99 0.33 1.98 0.66 3 1 C-0.9908179 5.3429489 -4.46448311 8.65135119 -10.53515625 9.25 C-13.07883517 9.30855951 -15.47872528 9.34916934 -18 9 C-18.66 8.34 -19.32 7.68 -20 7 C-19.13117188 6.89042969 -18.26234375 6.78085938 -17.3671875 6.66796875 C-8.74127594 5.60784076 -8.74127594 5.60784076 -1 2 C-0.67 1.34 -0.34 0.68 0 0 Z " fill="#373737" transform="translate(319,225)"/>
<path d="M0 0 C0.66 0 1.32 0 2 0 C2.05819424 3.24992446 2.09366116 6.49971435 2.125 9.75 C2.14175781 10.67039063 2.15851563 11.59078125 2.17578125 12.5390625 C2.18222656 13.42851562 2.18867188 14.31796875 2.1953125 15.234375 C2.20578613 16.05131836 2.21625977 16.86826172 2.22705078 17.70996094 C1.97829916 20.21887518 1.25700129 21.83395625 0 24 C-0.19533059 20.9378174 -0.38153284 17.87553679 -0.5625 14.8125 C-0.61857422 13.94818359 -0.67464844 13.08386719 -0.73242188 12.19335938 C-0.9761489 7.95250921 -1.15770796 4.14202181 0 0 Z " fill="#686868" transform="translate(325,138)"/>
<path d="M0 0 C2.52775351 3.79163027 2.22443035 6.80874031 2.125 11.1875 C2.11597656 11.93708984 2.10695313 12.68667969 2.09765625 13.45898438 C2.07412578 15.30612654 2.03825561 17.15310412 2 19 C1.34 19.33 0.68 19.66 0 20 C-1.18225237 13.16920852 -0.74464946 6.87368733 0 0 Z " fill="#4E4E4E" transform="translate(325,197)"/>
<path d="M0 0 C1.0828125 1.11375 1.0828125 1.11375 2.1875 2.25 C4.68592573 4.69290515 7.23643202 6.8681047 10 9 C9.67 9.66 9.34 10.32 9 11 C5.48417746 9.04676526 2.56188679 7.13119496 0 4 C0 2.68 0 1.36 0 0 Z " fill="#353535" transform="translate(110,367)"/>
<path d="M0 0 C0.66 0.33 1.32 0.66 2 1 C0.06745228 3.0245738 -1.63158688 4.42105792 -4 6 C-6.48046875 5.9765625 -6.48046875 5.9765625 -9.1875 5.625 C-10.53908203 5.45871094 -10.53908203 5.45871094 -11.91796875 5.2890625 C-12.94857422 5.14597656 -12.94857422 5.14597656 -14 5 C-14 4.67 -14 4.34 -14 4 C-13.40832031 3.96261719 -12.81664062 3.92523438 -12.20703125 3.88671875 C-7.29807394 3.47830631 -4.17275063 2.78183376 0 0 Z " fill="#2C2C2C" transform="translate(318,115)"/>
<path d="M0 0 C0.99 0.99 1.98 1.98 3 3 C-1.29 2.34 -5.58 1.68 -10 1 C-5.63624057 -1.18187972 -4.5342242 -1.25414712 0 0 Z " fill="#212121" transform="translate(314,79)"/>
<path d="M0 0 C0.66 0.33 1.32 0.66 2 1 C2 3.64 2 6.28 2 9 C1.34 9 0.68 9 0 9 C-1.125 3.375 -1.125 3.375 0 0 Z " fill="#2A2A2A" transform="translate(260,277)"/>
<path d="M0 0 C0.99 0.33 1.98 0.66 3 1 C-0.96 4.465 -0.96 4.465 -5 8 C-5.33 7.34 -5.66 6.68 -6 6 C-4 4 -2 2 0 0 Z " fill="#333333" transform="translate(117,227)"/>
</svg>
