<?xml version="1.0" encoding="UTF-8"?>
<!-- Generator: visioncortex VTracer 0.6.3 -->
<svg version="1.1" xmlns="http://www.w3.org/2000/svg" width="1259" height="1280">
<path d="M0 0 C415.47 0 830.94 0 1259 0 C1259 422.4 1259 844.8 1259 1280 C843.53 1280 428.06 1280 0 1280 C0 857.6 0 435.2 0 0 Z " fill="#00BFDA" transform="translate(0,0)"/>
<path d="M0 0 C15.91 12.69 25.65 29.77 28 50 C29.39 73.06 25.38 91.66 10.25 109.63 C-2.42 123 -16.1 130.68 -34.52 131.34 C-51.3 131.56 -63.86 130.71 -78 121 C-78.66 120.56 -79.33 120.12 -80.01 119.67 C-97.35 107.48 -107.32 90.71 -111 70 C-112.84 47.04 -108.2 27.13 -93.08 9.2 C-89.7 5.63 -86.07 2.76 -82 0 C-81 -0.68 -79.99 -1.36 -78.96 -2.07 C-71.89 -6.65 -65.12 -9.81 -57 -12 C-55.9 -12.34 -55.9 -12.34 -54.78 -12.68 C-35.85 -17.84 -15.27 -11.52 0 0 Z " fill="#F9FCFE" transform="translate(706,576)"/>
<path d="M0 0 C0.89 0.03 1.78 0.06 2.7 0.1 C13.73 0.64 20.93 5.07 28.69 12.66 C29.28 13.16 29.88 13.66 30.49 14.17 C37.27 20.14 43.19 30.74 43.85 39.9 C43.89 42.55 43.92 45.2 43.94 47.85 C43.96 48.76 43.98 49.66 44 50.6 C44.04 56.84 43.04 61.89 40.69 67.66 C40.3 68.63 39.9 69.6 39.5 70.6 C34.62 78.84 29.03 84.91 20.69 89.66 C22.31 98.46 29.33 106.79 34.11 114.19 C35.68 116.65 37.19 119.15 38.69 121.66 C39.57 123.1 40.46 124.54 41.35 125.98 C41.83 126.76 42.32 127.55 42.81 128.35 C43.82 129.98 44.83 131.61 45.84 133.24 C46.32 134.02 46.79 134.8 47.29 135.61 C47.73 136.31 48.16 137.02 48.61 137.75 C49.69 139.66 49.69 139.66 50.69 142.66 C46.35 142.78 42.01 142.87 37.66 142.93 C36.19 142.96 34.71 142.99 33.23 143.04 C31.11 143.1 28.99 143.13 26.86 143.15 C25.58 143.17 24.3 143.2 22.99 143.23 C19.69 142.66 19.69 142.66 17.36 140.33 C15.42 137.24 13.57 134.11 11.81 130.91 C9.6 126.96 7.38 123.08 4.81 119.35 C1.78 114.92 -0.95 110.34 -3.69 105.72 C-4.37 104.58 -4.37 104.58 -5.06 103.42 C-5.48 102.71 -5.9 101.99 -6.34 101.26 C-6.91 100.29 -6.91 100.29 -7.49 99.3 C-8.31 97.66 -8.31 97.66 -8.31 95.66 C-17.88 95.66 -27.45 95.66 -37.31 95.66 C-37.31 111.17 -37.31 126.68 -37.31 142.66 C-45.89 142.66 -54.47 142.66 -63.31 142.66 C-65.31 138.66 -65.55 137.23 -65.52 132.94 C-65.51 131.77 -65.5 130.61 -65.5 129.4 C-65.48 128.13 -65.46 126.85 -65.45 125.54 C-65.44 124.18 -65.43 122.82 -65.42 121.46 C-65.39 117.77 -65.35 114.08 -65.31 110.39 C-65.27 106.53 -65.24 102.67 -65.21 98.82 C-65.15 91.51 -65.08 84.21 -65.01 76.91 C-64.93 68.6 -64.86 60.28 -64.79 51.97 C-64.64 34.86 -64.48 17.76 -64.31 0.66 C-57.31 0.49 -50.31 0.33 -43.3 0.18 C-40.93 0.13 -38.56 0.07 -36.19 0.01 C-24.12 -0.28 -12.07 -0.48 0 0 Z " fill="#FAFDFF" transform="translate(821.3125,563.33984375)"/>
<path d="M0 0 C415.47 0 830.94 0 1259 0 C1259 2.97 1259 5.94 1259 9 C843.53 9 428.06 9 0 9 C0 6.03 0 3.06 0 0 Z " fill="#FAFDFF" transform="translate(0,1271)"/>
<path d="M0 0 C4.39 2.96 7.02 6.67 10 11 C11.21 12.56 12.41 14.11 13.63 15.66 C14.89 17.28 16.13 18.91 17.37 20.55 C20.17 24.25 23.08 27.88 26 31.5 C30.23 36.76 34.39 42.07 38.49 47.43 C42.25 52.35 46.11 57.18 50 62 C52.67 65.33 55.34 68.66 58 72 C58.46 72.57 58.92 73.15 59.39 73.74 C60.89 75.61 62.38 77.49 63.88 79.38 C64.35 79.97 64.83 80.57 65.32 81.18 C67.16 83.5 68.84 85.65 70.07 88.35 C70.87 90.22 70.87 90.22 73.06 90.6 C73.7 90.73 74.34 90.87 75 91 C75.02 83.08 75.04 75.16 75.05 67.24 C75.06 63.57 75.06 59.89 75.08 56.21 C75.09 52.67 75.09 49.12 75.09 45.57 C75.1 44.22 75.1 42.86 75.11 41.51 C75.11 39.61 75.11 37.72 75.11 35.83 C75.12 34.75 75.12 33.67 75.12 32.56 C75.17 30.01 75.17 30.01 74 28 C73.9 26.06 73.87 24.13 73.87 22.19 C73.87 21.03 73.86 19.87 73.86 18.68 C73.87 17.47 73.87 16.25 73.88 15 C73.87 13.79 73.87 12.57 73.86 11.32 C73.86 10.16 73.87 9.01 73.87 7.81 C73.87 6.75 73.87 5.68 73.87 4.58 C74 2 74 2 75 0 C79.29 -0.03 83.58 -0.05 87.88 -0.06 C89.71 -0.08 89.71 -0.08 91.58 -0.09 C93.33 -0.09 93.33 -0.09 95.12 -0.1 C96.74 -0.11 96.74 -0.11 98.39 -0.11 C101 0 101 0 103 1 C103 47.53 103 94.06 103 142 C80 142 80 142 75.06 138.12 C73.99 136.45 72.97 134.74 72 133 C70.75 131.42 69.48 129.86 68.19 128.31 C65.96 125.5 63.75 122.68 61.54 119.85 C55.87 112.59 50.08 105.43 44.2 98.33 C40.5 93.85 36.88 89.33 33.31 84.75 C29.33 79.63 25.22 74.64 21 69.71 C17.17 65.23 13.46 60.65 9.78 56.05 C8.16 53.92 8.16 53.92 6 53 C6 82.37 6 111.74 6 142 C-2.58 142 -11.16 142 -20 142 C-21 141 -21 141 -21.12 138.67 C-21.12 137.64 -21.12 136.6 -21.12 135.53 C-21.12 133.75 -21.12 133.75 -21.12 131.93 C-21.12 130.61 -21.12 129.3 -21.11 127.94 C-21.11 126.55 -21.11 125.16 -21.11 123.78 C-21.11 119.99 -21.11 116.21 -21.1 112.43 C-21.1 108.48 -21.09 104.53 -21.09 100.58 C-21.09 93.1 -21.08 85.61 -21.07 78.13 C-21.06 69.61 -21.06 61.09 -21.05 52.58 C-21.04 35.05 -21.02 17.53 -21 0 C-14.58 -2.14 -6.54 -1.76 0 0 Z " fill="#F9FCFE" transform="translate(913,564)"/>
<path d="M0 0 C0.5 0.99 0.5 0.99 1 2 C1.66 2 2.32 2 3 2 C6.81 11.33 10.61 20.65 13.88 30.19 C16.7 38.43 19.94 46.5 23.22 54.57 C26.34 62.25 29.28 69.99 32.17 77.76 C33.67 81.79 35.18 85.82 36.69 89.86 C37.33 91.57 37.97 93.28 38.62 94.99 C39.1 96.27 39.1 96.27 39.59 97.58 C40.24 99.32 40.89 101.07 41.54 102.81 C47.83 120.11 47.83 120.11 54.81 137.12 C56 140 56 140 56 143 C46.76 143 37.52 143 28 143 C23.51 134.02 23.51 134.02 22.22 130.34 C21.93 129.55 21.65 128.75 21.36 127.93 C20.79 126.31 20.21 124.69 19.64 123.07 C19.36 122.27 19.07 121.48 18.78 120.66 C18.41 119.6 18.41 119.6 18.03 118.53 C16.56 114.93 14.74 111.48 13 108 C-2.84 108.33 -18.68 108.66 -35 109 C-38.21 116.7 -41.22 124.23 -43.85 132.1 C-44.21 133.15 -44.21 133.15 -44.57 134.21 C-44.77 134.82 -44.98 135.43 -45.19 136.06 C-46.28 138.67 -47.24 140.76 -49 143 C-51.82 143.57 -51.82 143.57 -55.2 143.49 C-57.01 143.46 -57.01 143.46 -58.86 143.44 C-60.12 143.4 -61.39 143.36 -62.69 143.31 C-64.6 143.28 -64.6 143.28 -66.55 143.24 C-69.7 143.19 -72.85 143.1 -76 143 C-76.62 141.12 -76.62 141.12 -77 139 C-76.01 138.01 -76.01 138.01 -75 137 C-74.07 134.59 -73.22 132.19 -72.4 129.73 C-70.06 122.92 -67.58 116.17 -64.98 109.45 C-64.62 108.54 -64.27 107.63 -63.91 106.69 C-62.81 103.88 -61.72 101.06 -60.62 98.25 C-59.18 94.53 -57.73 90.8 -56.29 87.08 C-55.93 86.16 -55.57 85.24 -55.21 84.29 C-52.09 76.25 -49.02 68.2 -45.96 60.14 C-43.09 52.61 -40.21 45.09 -37.32 37.58 C-36.69 35.93 -36.05 34.29 -35.42 32.64 C-31.36 22.06 -27.23 11.51 -23 1 C-11.62 0.5 -11.62 0.5 0 0 Z " fill="#F9FCFE" transform="translate(216,563)"/>
<path d="M0 0 C7.21 5.47 17.21 13.39 18.71 22.81 C18.3 25.25 18.3 25.25 16.39 26.87 C15.54 27.32 14.68 27.78 13.8 28.25 C9.7 30.48 5.88 32.85 2.09 35.56 C0.3 36.25 0.3 36.25 -1.76 35.6 C-3.9 34.1 -4.92 32.75 -6.32 30.56 C-11.31 23.67 -18.54 18.73 -26.8 16.61 C-37.79 15.22 -49.62 16.49 -58.82 22.93 C-69.79 31.78 -75.03 42.51 -77.7 56.25 C-79.21 70.79 -76.65 84.18 -67.95 96.12 C-65.7 99.25 -65.7 99.25 -65.7 101.25 C-65.18 101.5 -64.67 101.76 -64.13 102.02 C-62.22 102.98 -60.32 103.96 -58.42 104.94 C-57.2 105.56 -55.98 106.19 -54.76 106.81 C-53.85 107.28 -53.85 107.28 -52.92 107.77 C-44.04 112.28 -33.64 112.83 -24.04 110.27 C-13.38 106.28 -7.84 101.76 -1.7 92.25 C2.68 92.77 5.65 93.76 9.36 96.12 C10.59 96.89 10.59 96.89 11.84 97.68 C13.06 98.45 13.06 98.45 14.3 99.25 C15.19 99.74 16.07 100.24 16.98 100.75 C19.3 102.25 19.3 102.25 21.3 105.25 C20.92 111.06 15.1 115.33 11.3 119.25 C10.59 119.98 9.89 120.71 9.16 121.46 C-2.76 132.94 -20.17 137.22 -36.39 137.68 C-46.76 137.3 -57.78 135.8 -66.7 130.25 C-67.86 129.62 -67.86 129.62 -69.04 128.97 C-75.74 125.23 -81.24 120.61 -86.7 115.25 C-87.25 114.7 -87.81 114.16 -88.38 113.61 C-101.92 99.11 -107.41 78.62 -107.04 59.25 C-106.03 38.03 -95.91 20.41 -80.51 6.31 C-77.44 3.7 -74.4 1.89 -70.7 0.25 C-69.92 -0.25 -69.13 -0.74 -68.32 -1.25 C-49.22 -12.17 -18.58 -12.08 0 0 Z " fill="#F9FCFE" transform="translate(563.69921875,570.75390625)"/>
<path d="M0 0 C12.67 6.72 18.51 18.09 23.45 31.13 C27.3 44.33 25.59 59.08 19.36 71.25 C13.6 80.9 4.36 89.39 -6.44 92.82 C-18.16 95.1 -28.71 92.9 -38.95 86.9 C-41 85.47 -42.81 83.95 -44.64 82.25 C-45.33 81.63 -46.02 81 -46.73 80.36 C-52.86 74.21 -55.2 67.4 -57.64 59.25 C-58.14 57.76 -58.14 57.76 -58.64 56.25 C-60.2 38.16 -57.4 23.72 -46.06 9.22 C-34.85 -3.28 -15.18 -6.61 0 0 Z " fill="#00BFDA" transform="translate(681.64453125,589.75)"/>
<path d="M0 0 C1.2 2.4 1.14 3.92 1.15 6.6 C1.16 7.57 1.17 8.54 1.18 9.54 C1.18 11.14 1.18 11.14 1.19 12.77 C1.2 13.89 1.21 15.01 1.21 16.16 C1.23 18.6 1.25 21.04 1.26 23.48 C1.28 27.33 1.31 31.18 1.34 35.04 C1.4 43.91 1.46 52.78 1.51 61.65 C1.57 70.43 1.63 79.21 1.69 87.98 C1.72 91.79 1.74 95.6 1.76 99.4 C1.78 101.72 1.79 104.04 1.81 106.36 C1.82 107.96 1.82 107.96 1.82 109.6 C1.83 110.57 1.84 111.53 1.85 112.53 C1.85 113.37 1.86 114.22 1.86 115.09 C1.79 117.01 1.79 117.01 3 118 C5.17 118.11 7.34 118.16 9.51 118.17 C10.19 118.18 10.87 118.19 11.57 118.19 C13.05 118.21 14.53 118.22 16.01 118.23 C18.35 118.25 20.69 118.27 23.03 118.29 C29.69 118.37 36.34 118.43 43 118.48 C47.06 118.51 51.13 118.55 55.2 118.6 C56.75 118.61 58.3 118.63 59.86 118.63 C62.02 118.65 64.19 118.67 66.36 118.7 C68.22 118.71 68.22 118.71 70.11 118.73 C73 119 73 119 75 121 C75 128.26 75 135.52 75 143 C42 143 9 143 -25 143 C-26.32 140.36 -26.12 138.4 -26.12 135.44 C-26.12 134.26 -26.12 133.08 -26.12 131.87 C-26.12 130.56 -26.12 129.26 -26.11 127.92 C-26.11 126.54 -26.11 125.16 -26.11 123.78 C-26.11 120.03 -26.11 116.28 -26.1 112.53 C-26.1 108.61 -26.09 104.69 -26.09 100.77 C-26.09 93.35 -26.08 85.93 -26.07 78.5 C-26.06 70.05 -26.06 61.6 -26.05 53.15 C-26.04 35.77 -26.02 18.38 -26 1 C-22.04 0.83 -18.08 0.67 -14.12 0.5 C-12.43 0.43 -12.43 0.43 -10.71 0.36 C-9.63 0.31 -8.55 0.27 -7.45 0.22 C-5.95 0.16 -5.95 0.16 -4.43 0.09 C-2.95 0.04 -1.48 0 0 0 Z " fill="#FAFDFF" transform="translate(315,563)"/>
<path d="M0 0 C6.99 6.18 12.62 17.23 13.27 26.56 C13.36 33.4 12.99 38.42 10.06 44.61 C9.65 45.6 9.24 46.59 8.81 47.61 C3.24 57.17 -4.87 63.16 -15.33 66.78 C-28.11 69.71 -39.57 67.63 -50.69 60.92 C-58.71 55.18 -63.87 47.26 -65.94 37.61 C-67.11 26.33 -65.71 16.66 -59.12 7.3 C-44.4 -10.7 -18.87 -13.54 0 0 Z " fill="#00BFDA" transform="translate(1108.9375,563.390625)"/>
<path d="M0 0 C4.29 -0.03 8.58 -0.05 12.88 -0.06 C14.71 -0.08 14.71 -0.08 16.58 -0.09 C18.33 -0.09 18.33 -0.09 20.12 -0.1 C21.74 -0.11 21.74 -0.11 23.39 -0.11 C26 0 26 0 28 1 C28 47.53 28 94.06 28 142 C19.42 142 10.84 142 2 142 C0 140 0 140 -0.25 137.57 C-0.24 136.54 -0.24 135.51 -0.24 134.44 C-0.24 133.26 -0.25 132.08 -0.25 130.87 C-0.24 129.56 -0.23 128.26 -0.23 126.92 C-0.23 125.54 -0.23 124.16 -0.23 122.78 C-0.23 119.03 -0.22 115.28 -0.2 111.53 C-0.19 107.61 -0.19 103.69 -0.19 99.77 C-0.18 92.35 -0.16 84.93 -0.14 77.5 C-0.12 69.05 -0.11 60.6 -0.1 52.15 C-0.08 34.77 -0.04 17.38 0 0 Z " fill="#F9FCFE" transform="translate(407,564)"/>
<path d="M0 0 C2.19 -0 4.37 -0.04 6.56 -0.08 C14.63 -0.14 21.6 -0.12 27.86 5.75 C33.81 12.37 35.74 19.21 35.6 27.85 C35 35.11 30.54 40.55 25.39 45.37 C21.52 48.05 17.27 47.64 12.76 47.6 C11.92 47.6 11.09 47.6 10.23 47.6 C8.48 47.6 6.72 47.59 4.96 47.58 C2.27 47.56 -0.43 47.56 -3.12 47.56 C-4.83 47.55 -6.54 47.55 -8.24 47.54 C-9.45 47.54 -9.45 47.54 -10.69 47.54 C-16.38 47.49 -16.38 47.49 -18.61 46.37 C-18.61 31.85 -18.61 17.33 -18.61 2.37 C-12.33 -0.14 -6.65 -0 0 0 Z " fill="#00BFDA" transform="translate(802.609619140625,586.62939453125)"/>
<path d="M0 0 C3.22 -0.11 6.43 -0.22 9.65 -0.32 C11.52 -0.39 13.39 -0.46 15.26 -0.55 C21.64 -0.85 26.66 -1.03 31.69 3.29 C36.26 8.01 40.18 12.74 40.62 19.5 C40.34 24.41 38.29 28.37 35 32 C34.01 32.33 33.02 32.66 32 33 C33.69 38.7 36.44 43.26 39.54 48.29 C41 51 41 51 41 54 C37.89 54.99 35.25 55.44 32 55 C25.97 50.56 22.25 43.61 19 37 C16.69 37 14.38 37 12 37 C11.67 42.61 11.34 48.22 11 54 C3.29 54.1 3.29 54.1 1 54 C0 53 0 53 -0.12 50.87 C-0.12 49.93 -0.12 48.99 -0.11 48.02 C-0.11 46.96 -0.11 45.9 -0.11 44.81 C-0.11 43.65 -0.1 42.5 -0.1 41.31 C-0.1 40.13 -0.09 38.96 -0.09 37.75 C-0.09 33.98 -0.08 30.21 -0.06 26.44 C-0.06 23.89 -0.05 21.34 -0.05 18.79 C-0.04 12.53 -0.02 6.26 0 0 Z " fill="#F9FCFE" transform="translate(1063,565)"/>
<path d="M0 0 C8.26 5.42 14.54 12.32 18.23 21.52 C18.77 22.78 18.77 22.78 19.31 24.06 C20.62 29 20.6 33.75 20.61 38.84 C20.63 39.83 20.65 40.82 20.68 41.85 C20.71 48.65 19.54 53.59 16.23 59.52 C15.51 60.83 15.51 60.83 14.77 62.16 C8.35 71.88 -0.16 78.11 -11.77 80.52 C-15.79 80.8 -19.81 80.8 -23.83 80.84 C-25.46 80.88 -25.46 80.88 -27.11 80.92 C-39.67 81.02 -49.44 76.93 -58.77 68.52 C-67.94 58.26 -70.9 46.9 -70.36 33.41 C-69.48 23.23 -64.61 13.97 -57.77 6.52 C-42.7 -6.06 -17.55 -9.36 0 0 Z M-54.64 13.46 C-62.82 23.58 -64.82 33.62 -63.77 46.52 C-61.74 56.16 -56.53 64.11 -48.52 69.84 C-37.55 76.45 -26.23 78.53 -13.65 75.86 C-3.45 72.52 6.36 65.86 11.45 56.22 C15.42 47.58 17.39 37.59 14.04 28.34 C13.46 27.05 12.86 25.78 12.23 24.52 C11.88 23.71 11.53 22.9 11.16 22.06 C6.65 12.15 0.42 6.43 -9.77 2.52 C-25.72 -2.17 -43.14 0.86 -54.64 13.46 Z " fill="#F9FCFE" transform="translate(1106.76953125,554.4765625)"/>
<path d="M0 0 C2.98 1.49 3.16 3.55 4.32 6.63 C4.77 7.82 5.22 9.01 5.68 10.23 C6.16 11.53 6.64 12.83 7.12 14.12 C7.62 15.44 8.11 16.75 8.6 18.07 C10.08 22.04 11.54 26.02 13 30 C13.43 31.18 13.87 32.36 14.31 33.58 C15.47 36.76 16.62 39.94 17.75 43.12 C18.1 44.08 18.44 45.04 18.8 46.03 C19.11 46.91 19.42 47.79 19.73 48.7 C20 49.46 20.28 50.22 20.55 51.01 C21 53 21 53 20 56 C14.91 56.07 9.82 56.13 4.73 56.16 C3 56.18 1.26 56.2 -0.47 56.23 C-2.96 56.26 -5.44 56.28 -7.93 56.29 C-8.71 56.31 -9.48 56.32 -10.28 56.34 C-12.47 56.34 -12.47 56.34 -16 56 C-16.66 55.01 -17.32 54.02 -18 53 C-17.27 50.15 -16.44 47.54 -15.42 44.79 C-15.14 43.98 -14.85 43.18 -14.55 42.35 C-13.63 39.77 -12.69 37.2 -11.75 34.62 C-11.13 32.9 -10.51 31.17 -9.89 29.45 C-7.68 23.26 -5.46 17.09 -3 11 C-1.71 7.35 -0.67 3.81 0 0 Z " fill="#00BFDA" transform="translate(204,596)"/>
<path d="M0 0 C3.19 2.06 3.19 2.06 5 5 C5.77 9.31 5.49 11.21 3.19 14.94 C-1.36 17.88 -5.71 17.81 -11 17 C-13 15 -13 15 -13.2 11.74 C-13.17 10.47 -13.15 9.19 -13.12 7.88 C-13.11 6.59 -13.09 5.31 -13.07 3.99 C-13.05 3 -13.02 2.02 -13 1 C-9.03 -0.98 -4.31 -0.54 0 0 Z " fill="#00BFDA" transform="translate(1087,575)"/>
<path d="M0 0 C0 9.24 0 18.48 0 28 C-0.99 27.67 -1.98 27.34 -3 27 C-3 18.42 -3 9.84 -3 1 C-1 0 -1 0 0 0 Z " fill="#A1EAF0" transform="translate(990,565)"/>
</svg>
