<?xml version="1.0" encoding="UTF-8"?>
<svg version="1.1" xmlns="http://www.w3.org/2000/svg" width="128" height="128">
<path d="M0 0 C0.89294769 -0.00365067 1.78589539 -0.00730133 2.7059021 -0.01106262 C5.66220017 -0.01917901 8.617952 -0.00554892 11.57421875 0.0090332 C13.6254069 0.00955168 15.67659555 0.00903446 17.7277832 0.00752258 C22.02855844 0.00761236 26.32914642 0.01805207 30.62988281 0.03613281 C36.14827843 0.05882007 41.6664003 0.05936459 47.18482971 0.05261517 C51.42096396 0.04927689 55.65703558 0.05590262 59.89315796 0.0657444 C61.92816846 0.06959913 63.96318593 0.07074349 65.99819946 0.06915855 C68.84008101 0.06878853 71.68160896 0.08139058 74.5234375 0.09765625 C75.36820648 0.09517883 76.21297546 0.09270142 77.08334351 0.09014893 C80.98877856 0.12590237 82.93824465 0.15666505 86.26171875 2.37231445 C87.17480521 5.11157384 87.38805575 6.7179815 87.39111328 9.53662109 C87.39426544 10.3708107 87.3974176 11.20500031 87.40066528 12.06446838 C87.39762894 13.40987953 87.39762894 13.40987953 87.39453125 14.7824707 C87.39548798 15.7057164 87.3964447 16.6289621 87.39743042 17.58018494 C87.39811079 19.53115914 87.39626648 21.48213562 87.39208984 23.43310547 C87.38673351 26.4265651 87.39204281 29.41987509 87.3984375 32.41333008 C87.39777681 34.30721062 87.39649584 36.20109107 87.39453125 38.0949707 C87.39655548 38.9939357 87.39857971 39.8929007 87.40066528 40.81910706 C87.39593704 42.06566322 87.39593704 42.06566322 87.39111328 43.33740234 C87.39031769 44.07003799 87.38952209 44.80267365 87.38870239 45.55751038 C87.26171875 47.37231445 87.26171875 47.37231445 86.26171875 49.37231445 C84.61171875 49.04231445 82.96171875 48.71231445 81.26171875 48.37231445 C81.26171875 34.18231445 81.26171875 19.99231445 81.26171875 5.37231445 C52.22171875 5.37231445 23.18171875 5.37231445 -6.73828125 5.37231445 C-6.73828125 44.31231445 -6.73828125 83.25231445 -6.73828125 123.37231445 C22.30171875 123.37231445 51.34171875 123.37231445 81.26171875 123.37231445 C81.26171875 115.45231445 81.26171875 107.53231445 81.26171875 99.37231445 C82.91171875 99.04231445 84.56171875 98.71231445 86.26171875 98.37231445 C88.78524422 100.89583992 87.49602667 107.73282412 87.51171875 111.12231445 C87.53234375 112.2205957 87.55296875 113.31887695 87.57421875 114.45043945 C87.58195312 116.0437207 87.58195312 116.0437207 87.58984375 117.66918945 C87.59918945 118.64210938 87.60853516 119.6150293 87.61816406 120.61743164 C87.16763858 124.09943818 86.56395539 125.68818332 84.26171875 128.37231445 C81.13930197 128.87356706 78.55771678 129.03609227 75.43164062 128.98754883 C74.52893936 128.99309784 73.6262381 128.99864685 72.69618225 129.00436401 C69.70707406 129.01619177 66.7194713 128.99185353 63.73046875 128.96606445 C61.65686106 128.96435414 59.5832512 128.96441823 57.50964355 128.96618652 C53.16165512 128.9645315 48.81418117 128.94579974 44.46630859 128.91430664 C38.88727212 128.87462861 33.30891 128.87026024 27.72975922 128.87776947 C23.44726358 128.88083603 19.16492015 128.86872981 14.88246155 128.85163879 C12.82512873 128.8445972 10.76777866 128.84148566 8.71043396 128.84233093 C5.83723657 128.84053729 2.96485379 128.81919262 0.09179688 128.79223633 C-0.76232285 128.79516693 -1.61644257 128.79809753 -2.4964447 128.80111694 C-8.2494916 128.7176509 -8.2494916 128.7176509 -10.45642281 127.15842438 C-12.15631615 124.78983494 -12.11555348 123.30455625 -12.11923218 120.40014648 C-12.12769165 119.37383118 -12.13615112 118.34751587 -12.14486694 117.2901001 C-12.13879425 116.16480896 -12.13272156 115.03951782 -12.12646484 113.88012695 C-12.1317218 112.69457214 -12.13697876 111.50901733 -12.14239502 110.28753662 C-12.15334656 107.03542681 -12.15076538 103.78368248 -12.14125776 100.53157806 C-12.13366719 97.12968675 -12.14070509 93.72782 -12.14541626 90.32592773 C-12.15087559 84.61282969 -12.14367763 78.89984796 -12.12939453 73.18676758 C-12.11306757 66.57982881 -12.11835596 59.97316777 -12.13487375 53.36623573 C-12.14848364 47.69566278 -12.15041074 42.02517347 -12.14255774 36.35458946 C-12.13787845 32.96691714 -12.13726327 29.57937539 -12.14716721 26.19171143 C-12.15475953 22.41578209 -12.1432078 18.64039105 -12.12646484 14.86450195 C-12.13253754 13.73921082 -12.13861023 12.61391968 -12.14486694 11.45452881 C-12.13640747 10.4282135 -12.127948 9.40189819 -12.11923218 8.34448242 C-12.1181011 7.4514743 -12.11697002 6.55846619 -12.11580467 5.63839722 C-11.73828125 3.37231445 -11.73828125 3.37231445 -10.45405006 1.58494282 C-7.3881257 -0.58191487 -3.62239986 -0.03277662 0 0 Z " fill="#000000" transform="translate(11.73828125,-0.372314453125)"/>
<path d="M0 0 C2.60845923 2.60845923 2.35780384 3.8621047 2.4375 7.5 C2.36694817 13.99076836 0.37740404 18.5479049 -3 24 C-1.515 24.495 -1.515 24.495 0 25 C1.45920232 27.91840465 1.3304259 29.73328936 1 33 C-0.25466806 35.94153168 -1.85216064 38.63849801 -3.5 41.375 C-3.92925781 42.11105469 -4.35851562 42.84710938 -4.80078125 43.60546875 C-5.85563776 45.41044544 -6.92626881 47.20618718 -8 49 C-9.65 49 -11.3 49 -13 49 C-12.48068259 44.11402772 -11.02134273 40.9050279 -8.4375 36.75 C-5.90490396 33.12376481 -5.90490396 33.12376481 -5 29 C-5.66 28.67 -6.32 28.34 -7 28 C-7.40617554 29.0684314 -7.40617554 29.0684314 -7.82055664 30.15844727 C-14.54459159 46.35820773 -24.72131414 64.19363705 -38 76 C-40.75 76.25 -40.75 76.25 -43 76 C-43.268125 76.598125 -43.53625 77.19625 -43.8125 77.8125 C-45.05646632 80.1040169 -45.87633118 81.4830937 -48 83 C-51 83.375 -51 83.375 -54 83 C-55 82 -56 81 -57 80 C-58.67422986 80.29299023 -60.34178227 80.62690101 -62 81 C-62.99 80.34 -63.98 79.68 -65 79 C-65.1875 75.875 -65.1875 75.875 -65 73 C-65.66 73 -66.32 73 -67 73 C-67.13277344 73.61488281 -67.26554687 74.22976562 -67.40234375 74.86328125 C-67.66724609 76.07564453 -67.66724609 76.07564453 -67.9375 77.3125 C-68.11152344 78.11300781 -68.28554687 78.91351563 -68.46484375 79.73828125 C-69 82 -69 82 -70 85 C-71.65 85 -73.3 85 -75 85 C-74.4482815 77.82765954 -73.24192427 68.24192427 -68 63 C-65.5 62.75 -65.5 62.75 -63 63 C-59.99382731 66.00617269 -60.40414684 68.82381598 -60 73 C-59.0925 72.7525 -58.185 72.505 -57.25 72.25 C-54 72 -54 72 -51.625 73.9375 C-51.08875 74.618125 -50.5525 75.29875 -50 76 C-47.64908736 73.64908736 -47.7377964 73.04276049 -47.54296875 69.84765625 C-47.12825962 65.41318655 -46.04325432 61.53511103 -44.3125 57.4375 C-44.02286377 56.73931152 -43.73322754 56.04112305 -43.43481445 55.32177734 C-38.21998112 43.35326521 -31.23498469 31.85247704 -24 21 C-24.31730524 17.36060068 -24.31730524 17.36060068 -25 14 C-24.113125 13.835 -23.22625 13.67 -22.3125 13.5 C-18.18094514 11.62910723 -17.20529927 9.59923776 -15.17578125 5.6796875 C-14.78777344 5.12539063 -14.39976563 4.57109375 -14 4 C-13.01 4 -12.02 4 -11 4 C-10.71125 3.360625 -10.4225 2.72125 -10.125 2.0625 C-7.73707311 -2.31536597 -4.33209362 -0.85094696 0 0 Z M-5 4 C-5 5.32 -5 6.64 -5 8 C-4.34 7.67 -3.68 7.34 -3 7 C-3.33 6.01 -3.66 5.02 -4 4 C-4.33 4 -4.66 4 -5 4 Z M-12 11 C-12.99 12.98 -13.98 14.96 -15 17 C-12.67676547 18.62750037 -12.67676547 18.62750037 -10 20 C-9.01 19.67 -8.02 19.34 -7 19 C-5.78130071 16.49552484 -5.78130071 16.49552484 -5 14 C-8.05580974 11.41222792 -8.05580974 11.41222792 -12 11 Z M-18 21 C-23.37065175 30.6464555 -28.7400373 40.29258917 -34 50 C-31.67676547 51.62750037 -31.67676547 51.62750037 -29 53 C-25.04280369 51.68093456 -24.65372996 50.140023 -22.64453125 46.5390625 C-22.02255859 45.42789063 -21.40058594 44.31671875 -20.75976562 43.171875 C-20.44048096 42.58986328 -20.12119629 42.00785156 -19.79223633 41.40820312 C-18.81661575 39.63249101 -17.82464091 37.8667207 -16.83007812 36.1015625 C-13.29161241 30.37664424 -13.29161241 30.37664424 -12 24 C-13.98 23.01 -15.96 22.02 -18 21 Z M-36 55 C-37.485 58.465 -37.485 58.465 -39 62 C-37.02 62.99 -37.02 62.99 -35 64 C-33.68 62.02 -32.36 60.04 -31 58 C-32.65 57.01 -34.3 56.02 -36 55 Z M-41 67 C-41 68.32 -41 69.64 -41 71 C-40.34 70.67 -39.68 70.34 -39 70 C-39.33 69.01 -39.66 68.02 -40 67 C-40.33 67 -40.66 67 -41 67 Z " fill="#000000" transform="translate(126,26)"/>
<path d="M0 0 C1.02814316 0.00222061 2.05628632 0.00444122 3.11558533 0.00672913 C4.85727745 0.00684242 4.85727745 0.00684242 6.63415527 0.00695801 C8.52943214 0.01469994 8.52943214 0.01469994 10.46299744 0.02259827 C12.39193092 0.02472069 12.39193092 0.02472069 14.35983276 0.02688599 C17.78427561 0.03071034 21.20867628 0.0405399 24.63310242 0.05158997 C28.12522308 0.06180587 31.61735053 0.06638399 35.10948181 0.07142639 C41.96561897 0.08216225 48.82172806 0.09923767 55.67784119 0.12025452 C56.06002886 1.77640109 56.3917922 3.44482476 56.67784119 5.12025452 C55.67784119 6.12025452 55.67784119 6.12025452 53.50753784 6.24050903 C52.55045425 6.23828842 51.59337067 6.23606781 50.60728455 6.23377991 C49.52623947 6.23370438 48.4451944 6.23362885 47.33139038 6.23355103 C45.56735619 6.2258091 45.56735619 6.2258091 43.76768494 6.21791077 C42.57051346 6.21649582 41.37334198 6.21508087 40.13989258 6.21362305 C36.29835053 6.20800431 32.45686576 6.19544862 28.61534119 6.18275452 C26.01833682 6.17774193 23.42133154 6.17317861 20.82432556 6.16908264 C14.4421444 6.15802879 8.05999688 6.14127244 1.67784119 6.12025452 C1.67784119 7.11025452 1.67784119 8.10025452 1.67784119 9.12025452 C19.82784119 9.12025452 37.97784119 9.12025452 56.67784119 9.12025452 C56.67784119 10.77025452 56.67784119 12.42025452 56.67784119 14.12025452 C36.87784119 14.12025452 17.07784119 14.12025452 -3.32215881 14.12025452 C-3.32215881 0.17204017 -3.32215881 0.17204017 0 0 Z " fill="#000000" transform="translate(22.322158813476563,11.879745483398438)"/>
<path d="M0 0 C2.375 1.75 2.375 1.75 3.25 3.9375 C3.29125 4.535625 3.3325 5.13375 3.375 5.75 C-0.61017378 6.85699272 -2.02813467 6.54843267 -5.625 4.75 C-9.77310581 4.28909935 -12.09433096 4.49487066 -15.875 6.3125 C-19.22362121 9.28059608 -20.3882719 11.457826 -21.625 15.75 C-21.625 20.17786158 -21.15100729 22.09249088 -18.375 25.5625 C-14.42737411 28.70265696 -12.21288627 29.80671022 -7.125 29.625 C-3.06592745 28.61023186 -1.43076207 27.8590877 1.375 24.75 C2.94051696 21.49106438 4.20686007 18.16958281 5.375 14.75 C6.695 14.75 8.015 14.75 9.375 14.75 C9.82865686 21.2146103 9.15266429 24.44085018 5.375 29.75 C1.01216091 33.88910375 -2.95206311 35.81700153 -8.9375 36.125 C-13.86492711 35.98562186 -17.67123154 34.71317287 -21.625 31.75 C-26.25739989 26.69229293 -28.00236803 21.9951488 -27.90234375 15.16015625 C-27.26999549 9.66496084 -24.69821788 5.41191532 -20.5625 1.8125 C-14.44897687 -2.47997368 -6.92674964 -2.38853436 0 0 Z " fill="#000000" transform="translate(35.625,84.25)"/>
<path d="M0 0 C6.94172388 -0.02529373 13.88343594 -0.04284304 20.82519531 -0.05493164 C23.18815556 -0.05996959 25.55111268 -0.06680008 27.9140625 -0.07543945 C31.30469535 -0.08752854 34.69528709 -0.09323359 38.0859375 -0.09765625 C39.14743011 -0.10281754 40.20892273 -0.10797882 41.30258179 -0.11329651 C42.77388046 -0.11340981 42.77388046 -0.11340981 44.27490234 -0.11352539 C45.14094086 -0.115746 46.00697937 -0.11796661 46.89926147 -0.12025452 C49 0 49 0 51 1 C50.125 4.875 50.125 4.875 49 6 C47.50659806 6.09830562 46.00859623 6.12798451 44.51196289 6.12939453 C43.08026512 6.13412277 43.08026512 6.13412277 41.61964417 6.13894653 C40.58113815 6.1369223 39.54263214 6.13489807 38.47265625 6.1328125 C36.88377846 6.13424759 36.88377846 6.13424759 35.26280212 6.13571167 C33.01740459 6.1363937 30.7720051 6.13453784 28.52661133 6.13037109 C25.080847 6.12502845 21.63521334 6.13031262 18.18945312 6.13671875 C16.01302054 6.13605787 13.83658805 6.1347765 11.66015625 6.1328125 C10.62367447 6.13483673 9.58719269 6.13686096 8.51930237 6.13894653 C7.56168503 6.13579437 6.60406769 6.13264221 5.61743164 6.12939453 C4.77217422 6.12859894 3.92691681 6.12780334 3.05604553 6.12698364 C1 6 1 6 -1 5 C-0.67 3.35 -0.34 1.7 0 0 Z " fill="#000000" transform="translate(35,44)"/>
<path d="M0 0 C0.87430664 -0.00315216 1.74861328 -0.00630432 2.64941406 -0.009552 C3.59526367 -0.00752777 4.54111328 -0.00550354 5.515625 -0.00341797 C6.48467773 -0.00437469 7.45373047 -0.00533142 8.45214844 -0.00631714 C10.50325587 -0.00699836 12.55436545 -0.00514808 14.60546875 -0.00097656 C17.75265323 0.00437248 20.89969498 -0.00092351 24.046875 -0.00732422 C26.03645865 -0.00666343 28.02604221 -0.00538224 30.015625 -0.00341797 C30.96147461 -0.0054422 31.90732422 -0.00746643 32.88183594 -0.009552 C33.75614258 -0.00639984 34.63044922 -0.00324768 35.53125 0 C36.68802246 0.00119339 36.68802246 0.00119339 37.86816406 0.00241089 C39.765625 0.12939453 39.765625 0.12939453 41.765625 1.12939453 C41.765625 2.44939453 41.765625 3.76939453 41.765625 5.12939453 C39.44721516 6.28859945 38.11123369 6.25612741 35.53125 6.25878906 C34.65694336 6.26194122 33.78263672 6.26509338 32.88183594 6.26834106 C31.93598633 6.26631683 30.99013672 6.2642926 30.015625 6.26220703 C28.5620459 6.26364212 28.5620459 6.26364212 27.07910156 6.2651062 C25.02799413 6.26578743 22.97688455 6.26393714 20.92578125 6.25976562 C17.77859677 6.25441658 14.63155502 6.25971257 11.484375 6.26611328 C9.49479135 6.26545249 7.50520779 6.26417131 5.515625 6.26220703 C4.56977539 6.26423126 3.62392578 6.26625549 2.64941406 6.26834106 C1.77510742 6.2651889 0.90080078 6.26203674 0 6.25878906 C-1.15677246 6.25759567 -1.15677246 6.25759567 -2.33691406 6.25637817 C-4.234375 6.12939453 -4.234375 6.12939453 -6.234375 5.12939453 C-6.234375 3.80939453 -6.234375 2.48939453 -6.234375 1.12939453 C-3.91596516 -0.02981039 -2.57998369 0.00266165 0 0 Z " fill="#000000" transform="translate(31.234375,28.87060546875)"/>
<path d="M0 0 C15.18 0 30.36 0 46 0 C46.495 2.475 46.495 2.475 47 5 C31.49 5 15.98 5 0 5 C-0.33 4.01 -0.66 3.02 -1 2 C-0.67 1.34 -0.34 0.68 0 0 Z " fill="#000000" transform="translate(15,57)"/>
<path d="M0 0 C0.70125 0.28875 1.4025 0.5775 2.125 0.875 C0.94055969 5.76081628 -2.1532877 8.33152132 -5.70703125 11.6171875 C-7.875 12.875 -7.875 12.875 -10.4296875 12.76171875 C-14.30258751 11.35732849 -16.11748735 8.88902545 -18.875 5.875 C-18.545 4.885 -18.215 3.895 -17.875 2.875 C-14.53126525 3.43228913 -11.84187001 4.22673889 -8.875 5.875 C-8.49988281 5.43027344 -8.12476563 4.98554687 -7.73828125 4.52734375 C-3.50621784 -0.15244425 -3.50621784 -0.15244425 0 0 Z " fill="#000000" transform="translate(35.875,95.125)"/>
<path d="M0 0 C8.25 0 16.5 0 25 0 C25.33 1.32 25.66 2.64 26 4 C25 5 25 5 22.59155273 5.11352539 C21.54942627 5.10828857 20.5072998 5.10305176 19.43359375 5.09765625 C18.30888672 5.09443359 17.18417969 5.09121094 16.02539062 5.08789062 C14.84138672 5.07951172 13.65738281 5.07113281 12.4375 5.0625 C11.24962891 5.05798828 10.06175781 5.05347656 8.83789062 5.04882812 C5.89187774 5.03699675 2.94596319 5.02051287 0 5 C-0.33 4.01 -0.66 3.02 -1 2 C-0.67 1.34 -0.34 0.68 0 0 Z " fill="#000000" transform="translate(15,68)"/>
<path d="M0 0 C1.18613892 0.00785522 1.18613892 0.00785522 2.39624023 0.01586914 C3.67724609 0.02070312 3.67724609 0.02070312 4.98413086 0.02563477 C5.88196289 0.03401367 6.77979492 0.04239258 7.70483398 0.05102539 C8.6065332 0.05553711 9.50823242 0.06004883 10.43725586 0.06469727 C12.67234712 0.07652315 14.90730835 0.09300319 17.14233398 0.11352539 C17.14233398 1.76352539 17.14233398 3.41352539 17.14233398 5.11352539 C10.87233398 5.11352539 4.60233398 5.11352539 -1.85766602 5.11352539 C-2.18766602 3.79352539 -2.51766602 2.47352539 -2.85766602 1.11352539 C-1.85766602 0.11352539 -1.85766602 0.11352539 0 0 Z " fill="#000000" transform="translate(46.857666015625,67.886474609375)"/>
<path d="M0 0 C5.94 0 11.88 0 18 0 C18.33 1.32 18.66 2.64 19 4 C18 5 18 5 16.14233398 5.11352539 C15.35157471 5.10828857 14.56081543 5.10305176 13.74609375 5.09765625 C12.89208984 5.09443359 12.03808594 5.09121094 11.15820312 5.08789062 C10.26037109 5.07951172 9.36253906 5.07113281 8.4375 5.0625 C7.53580078 5.05798828 6.63410156 5.05347656 5.70507812 5.04882812 C3.46998686 5.03700225 1.23502563 5.0205222 -1 5 C-0.67 3.35 -0.34 1.7 0 0 Z " fill="#000000" transform="translate(67,57)"/>
</svg>
